<svg xmlns="http://www.w3.org/2000/svg" xmlns:xlink="http://www.w3.org/1999/xlink" contentStyleType="text/css" data-diagram-type="ACTIVITY" height="1008px" preserveAspectRatio="none" style="width:946px;height:1008px;background:#FFFFFF;" version="1.1" viewBox="0 0 946 1008" width="946px" zoomAndPan="magnify"><title>Physics Engine &#8212; Single Tick Decision (DT = 1 second)</title><defs/><g><g class="title" data-source-line="6"><text fill="#000000" font-family="sans-serif" font-size="14" font-weight="bold" lengthAdjust="spacing" textLength="396.7578" x="273.5557" y="33.5352">Physics Engine &#8212; Single Tick Decision (DT = 1 second)</text></g><ellipse cx="477.9346" cy="57.4883" fill="#222222" rx="10" ry="10" style="stroke:#222222;stroke-width:1;"/><path d="M561.1787,80.1221 L561.1787,100.5547 L541.1787,104.5547 L561.1787,108.5547 L561.1787,128.9873 A0,0 0 0 0 561.1787,128.9873 L767.1592,128.9873 A0,0 0 0 0 767.1592,128.9873 L767.1592,90.1221 L757.1592,80.1221 L561.1787,80.1221 A0,0 0 0 0 561.1787,80.1221" fill="#FEFFDD" style="stroke:#181818;stroke-width:0.5;"/><path d="M757.1592,80.1221 L757.1592,90.1221 L767.1592,90.1221 L757.1592,80.1221" fill="#FEFFDD" style="stroke:#181818;stroke-width:0.5;"/><text fill="#000000" font-family="sans-serif" font-size="11" lengthAdjust="spacing" textLength="156.7285" x="567.1787" y="95.7568">speed_ms, posOnSegment_m</text><text fill="#000000" font-family="sans-serif" font-size="11" lengthAdjust="spacing" textLength="184.9805" x="567.1787" y="108.7119">segmentLength_m, speedLimit_ms</text><text fill="#000000" font-family="sans-serif" font-size="11" lengthAdjust="spacing" textLength="108.1523" x="567.1787" y="121.667">accelRate, decelRate</text><rect fill="#F1F1F1" height="34.1328" rx="12.5" ry="12.5" style="stroke:#181818;stroke-width:0.5;" width="126.4883" x="414.6904" y="87.4883"/><text fill="#000000" font-family="sans-serif" font-size="12" lengthAdjust="spacing" textLength="106.4883" x="424.6904" y="109.0898">Read current state</text><path d="M584.7744,154.5762 L584.7744,162.0537 L564.7744,166.0537 L584.7744,170.0537 L584.7744,177.5313 A0,0 0 0 0 584.7744,177.5313 L776.8223,177.5313 A0,0 0 0 0 776.8223,177.5313 L776.8223,164.5762 L766.8223,154.5762 L584.7744,154.5762 A0,0 0 0 0 584.7744,154.5762" fill="#FEFFDD" style="stroke:#181818;stroke-width:0.5;"/><path d="M766.8223,154.5762 L766.8223,164.5762 L776.8223,164.5762 L766.8223,154.5762" fill="#FEFFDD" style="stroke:#181818;stroke-width:0.5;"/><text fill="#000000" font-family="sans-serif" font-size="11" lengthAdjust="spacing" textLength="171.0479" x="590.7744" y="170.2109">brakeDist = v&#178; / (2 &#215; decelRate)</text><rect fill="#F1F1F1" height="34.1328" rx="12.5" ry="12.5" style="stroke:#181818;stroke-width:0.5;" width="173.6797" x="391.0947" y="148.9873"/><text fill="#000000" font-family="sans-serif" font-size="12" lengthAdjust="spacing" textLength="153.6797" x="401.0947" y="170.5889">Compute braking distance</text><path d="M608.1475,208.709 L608.1475,216.1865 L588.1475,220.1865 L608.1475,224.1865 L608.1475,231.6641 A0,0 0 0 0 608.1475,231.6641 L874.8911,231.6641 A0,0 0 0 0 874.8911,231.6641 L874.8911,218.709 L864.8911,208.709 L608.1475,208.709 A0,0 0 0 0 608.1475,208.709" fill="#FEFFDD" style="stroke:#181818;stroke-width:0.5;"/><path d="M864.8911,208.709 L864.8911,218.709 L874.8911,218.709 L864.8911,208.709" fill="#FEFFDD" style="stroke:#181818;stroke-width:0.5;"/><text fill="#000000" font-family="sans-serif" font-size="11" lengthAdjust="spacing" textLength="245.7437" x="614.1475" y="224.3438">distToEnd = segmentLength - posOnSegment</text><rect fill="#F1F1F1" height="34.1328" rx="12.5" ry="12.5" style="stroke:#181818;stroke-width:0.5;" width="220.4258" x="367.7217" y="203.1201"/><text fill="#000000" font-family="sans-serif" font-size="12" lengthAdjust="spacing" textLength="200.4258" x="377.7217" y="224.7217">Compute distance to segment end</text><polygon fill="#F1F1F1" points="32,257.2529,177.6758,257.2529,189.6758,269.2529,177.6758,281.2529,32,281.2529,20,269.2529,32,257.2529" style="stroke:#181818;stroke-width:0.5;"/><text fill="#000000" font-family="sans-serif" font-size="11" lengthAdjust="spacing" textLength="95.7988" x="108.8379" y="291.8877">yes &#8212; must brake</text><text fill="#000000" font-family="sans-serif" font-size="12" lengthAdjust="spacing" textLength="145.6758" x="32" y="273.7881">distToEnd &lt;= brakeDist?</text><path d="M189.0664,314.208 L189.0664,328.1631 L169.0664,332.1631 L189.0664,336.1631 L189.0664,350.1182 A0,0 0 0 0 189.0664,350.1182 L347.4751,350.1182 A0,0 0 0 0 347.4751,350.1182 L347.4751,324.208 L337.4751,314.208 L189.0664,314.208 A0,0 0 0 0 189.0664,314.208" fill="#FEFFDD" style="stroke:#181818;stroke-width:0.5;"/><path d="M337.4751,314.208 L337.4751,324.208 L347.4751,324.208 L337.4751,314.208" fill="#FEFFDD" style="stroke:#181818;stroke-width:0.5;"/><text fill="#000000" font-family="sans-serif" font-size="11" lengthAdjust="spacing" textLength="135.9478" x="195.0664" y="329.8428">speed -= decelRate &#215; DT</text><text fill="#000000" font-family="sans-serif" font-size="11" lengthAdjust="spacing" textLength="137.4087" x="195.0664" y="342.7979">if speed &lt; 0 &#8594; speed = 0</text><rect fill="#F1F1F1" height="34.1328" rx="12.5" ry="12.5" style="stroke:#181818;stroke-width:0.5;" width="128.457" x="40.6094" y="315.0967"/><text fill="#000000" font-family="sans-serif" font-size="12" lengthAdjust="spacing" textLength="108.457" x="50.6094" y="336.6982">Apply deceleration</text><rect fill="#F1F1F1" height="34.1328" rx="12.5" ry="12.5" style="stroke:#181818;stroke-width:0.5;" width="125.498" x="42.0889" y="374.4844"/><text fill="#000000" font-family="sans-serif" font-size="12" lengthAdjust="spacing" textLength="105.498" x="52.0889" y="396.0859">action = "Braking"</text><polygon fill="#F1F1F1" points="379.4751,257.2529,499.8853,257.2529,511.8853,269.2529,499.8853,281.2529,379.4751,281.2529,367.4751,269.2529,379.4751,257.2529" style="stroke:#181818;stroke-width:0.5;"/><text fill="#000000" font-family="sans-serif" font-size="11" lengthAdjust="spacing" textLength="111.0581" x="443.6802" y="291.8877">yes &#8212; can accelerate</text><text fill="#000000" font-family="sans-serif" font-size="12" lengthAdjust="spacing" textLength="120.4102" x="379.4751" y="273.7881">speed &lt; speedLimit?</text><text fill="#000000" font-family="sans-serif" font-size="11" lengthAdjust="spacing" textLength="72.7837" x="511.8853" y="266.9326">at speed limit</text><path d="M523.1763,314.208 L523.1763,328.1631 L503.1763,332.1631 L523.1763,336.1631 L523.1763,350.1182 A0,0 0 0 0 523.1763,350.1182 L784.3125,350.1182 A0,0 0 0 0 784.3125,350.1182 L784.3125,324.208 L774.3125,314.208 L523.1763,314.208 A0,0 0 0 0 523.1763,314.208" fill="#FEFFDD" style="stroke:#181818;stroke-width:0.5;"/><path d="M774.3125,314.208 L774.3125,324.208 L784.3125,324.208 L774.3125,314.208" fill="#FEFFDD" style="stroke:#181818;stroke-width:0.5;"/><text fill="#000000" font-family="sans-serif" font-size="11" lengthAdjust="spacing" textLength="136.9844" x="529.1763" y="329.8428">speed += accelRate &#215; DT</text><text fill="#000000" font-family="sans-serif" font-size="11" lengthAdjust="spacing" textLength="240.1362" x="529.1763" y="342.7979">if speed &gt; speedLimit &#8594; speed = speedLimit</text><rect fill="#F1F1F1" height="34.1328" rx="12.5" ry="12.5" style="stroke:#181818;stroke-width:0.5;" width="126.9922" x="376.1841" y="315.0967"/><text fill="#000000" font-family="sans-serif" font-size="12" lengthAdjust="spacing" textLength="106.9922" x="386.1841" y="336.6982">Apply acceleration</text><rect fill="#F1F1F1" height="34.1328" rx="12.5" ry="12.5" style="stroke:#181818;stroke-width:0.5;" width="135.3828" x="371.9888" y="374.4844"/><text fill="#000000" font-family="sans-serif" font-size="12" lengthAdjust="spacing" textLength="115.3828" x="381.9888" y="396.0859">action = "Speed up"</text><rect fill="#F1F1F1" height="34.1328" rx="12.5" ry="12.5" style="stroke:#181818;stroke-width:0.5;" width="108.3008" x="815.9404" y="311.6191"/><text fill="#000000" font-family="sans-serif" font-size="12" lengthAdjust="spacing" textLength="88.3008" x="825.9404" y="333.2207">Maintain speed</text><rect fill="#F1F1F1" height="34.1328" rx="12.5" ry="12.5" style="stroke:#181818;stroke-width:0.5;" width="131.5566" x="804.3125" y="370.1182"/><text fill="#000000" font-family="sans-serif" font-size="12" lengthAdjust="spacing" textLength="111.5566" x="814.3125" y="391.7197">action = "Maintain"</text><path d="M554.0859,454.2061 L554.0859,461.6836 L534.0859,465.6836 L554.0859,469.6836 L554.0859,477.1611 A0,0 0 0 0 554.0859,477.1611 L743.0562,477.1611 A0,0 0 0 0 743.0562,477.1611 L743.0562,464.2061 L733.0562,454.2061 L554.0859,454.2061 A0,0 0 0 0 554.0859,454.2061" fill="#FEFFDD" style="stroke:#181818;stroke-width:0.5;"/><path d="M733.0562,454.2061 L733.0562,464.2061 L743.0562,464.2061 L733.0562,454.2061" fill="#FEFFDD" style="stroke:#181818;stroke-width:0.5;"/><text fill="#000000" font-family="sans-serif" font-size="11" lengthAdjust="spacing" textLength="167.9702" x="560.0859" y="469.8408">posOnSegment += speed &#215; DT</text><rect fill="#F1F1F1" height="34.1328" rx="12.5" ry="12.5" style="stroke:#181818;stroke-width:0.5;" width="112.3027" x="421.7832" y="448.6172"/><text fill="#000000" font-family="sans-serif" font-size="12" lengthAdjust="spacing" textLength="92.3027" x="431.7832" y="470.2188">Update position</text><polygon fill="#F1F1F1" points="372.9053,502.75,582.9639,502.75,594.9639,514.75,582.9639,526.75,372.9053,526.75,360.9053,514.75,372.9053,502.75" style="stroke:#181818;stroke-width:0.5;"/><text fill="#000000" font-family="sans-serif" font-size="12" lengthAdjust="spacing" textLength="210.0586" x="372.9053" y="519.2852">posOnSegment &gt;= segmentLength?</text><text fill="#000000" font-family="sans-serif" font-size="11" lengthAdjust="spacing" textLength="17.4829" x="343.4224" y="512.4297">yes</text><text fill="#000000" font-family="sans-serif" font-size="11" lengthAdjust="spacing" textLength="13.5835" x="594.9639" y="512.4297">no</text><path d="M380.575,536.75 L380.575,563.6602 L360.575,567.6602 L380.575,571.6602 L380.575,598.5703 A0,0 0 0 0 380.575,598.5703 L589.7727,598.5703 A0,0 0 0 0 589.7727,598.5703 L589.7727,546.75 L579.7727,536.75 L380.575,536.75 A0,0 0 0 0 380.575,536.75" fill="#FEFFDD" style="stroke:#181818;stroke-width:0.5;"/><path d="M579.7727,536.75 L579.7727,546.75 L589.7727,546.75 L579.7727,536.75" fill="#FEFFDD" style="stroke:#181818;stroke-width:0.5;"/><text fill="#000000" font-family="sans-serif" font-size="11" lengthAdjust="spacing" textLength="126.2798" x="386.575" y="552.3848">&#8226; Advance to next node</text><text fill="#000000" font-family="sans-serif" font-size="11" lengthAdjust="spacing" textLength="124.04" x="386.575" y="565.3398">&#8226; Check events at node</text><text fill="#000000" font-family="sans-serif" font-size="11" lengthAdjust="spacing" textLength="188.1978" x="386.575" y="578.2949">&#8226; If intermediate &#8594; start stopTimer</text><text fill="#000000" font-family="sans-serif" font-size="11" lengthAdjust="spacing" textLength="129.3628" x="386.575" y="591.25">&#8226; If final &#8594; mark arrived</text><rect fill="#F1F1F1" height="34.1328" rx="12.5" ry="12.5" style="stroke:#181818;stroke-width:0.5;" width="174.1367" x="186.4382" y="550.5938"/><text fill="#000000" font-family="sans-serif" font-size="12" lengthAdjust="spacing" textLength="154.1367" x="196.4382" y="572.1953">Handle segment transition</text><rect fill="#F1F1F1" height="34.1328" rx="12.5" ry="12.5" style="stroke:#181818;stroke-width:0.5;" width="145.1797" x="609.7727" y="536.75"/><text fill="#000000" font-family="sans-serif" font-size="12" lengthAdjust="spacing" textLength="125.1797" x="619.7727" y="558.3516">Continue on segment</text><polygon fill="#F1F1F1" points="477.9346,604.5703,489.9346,616.5703,477.9346,628.5703,465.9346,616.5703,477.9346,604.5703" style="stroke:#181818;stroke-width:0.5;"/><path d="M552.4922,697.0479 L552.4922,711.0029 L532.4922,715.0029 L552.4922,719.0029 L552.4922,732.958 A0,0 0 0 0 552.4922,732.958 L748.9121,732.958 A0,0 0 0 0 748.9121,732.958 L748.9121,707.0479 L738.9121,697.0479 L552.4922,697.0479 A0,0 0 0 0 552.4922,697.0479" fill="#FEFFDD" style="stroke:#181818;stroke-width:0.5;"/><path d="M738.9121,697.0479 L738.9121,707.0479 L748.9121,707.0479 L738.9121,697.0479" fill="#FEFFDD" style="stroke:#181818;stroke-width:0.5;"/><text fill="#000000" font-family="sans-serif" font-size="11" lengthAdjust="spacing" textLength="145.3257" x="558.4922" y="712.6826">onTrainStep(time, from, to,</text><text fill="#000000" font-family="sans-serif" font-size="11" lengthAdjust="spacing" textLength="175.4199" x="558.4922" y="725.6377">distRemaining, action, railGraph)</text><rect fill="#F1F1F1" height="34.1328" rx="12.5" ry="12.5" style="stroke:#181818;stroke-width:0.5;" width="109.1152" x="423.377" y="697.9365"/><text fill="#000000" font-family="sans-serif" font-size="12" lengthAdjust="spacing" textLength="89.1152" x="433.377" y="719.5381">Notify observer</text><polygon fill="#F1F1F1" points="424.9189,648.5703,530.9502,648.5703,542.9502,660.5703,530.9502,672.5703,424.9189,672.5703,412.9189,660.5703,424.9189,648.5703" style="stroke:#181818;stroke-width:0.5;"/><text fill="#000000" font-family="sans-serif" font-size="11" lengthAdjust="spacing" textLength="17.4829" x="481.9346" y="683.2051">yes</text><text fill="#000000" font-family="sans-serif" font-size="12" lengthAdjust="spacing" textLength="106.0313" x="424.9189" y="665.1055">every 60 seconds?</text><text fill="#000000" font-family="sans-serif" font-size="11" lengthAdjust="spacing" textLength="13.5835" x="542.9502" y="658.25">no</text><polygon fill="#F1F1F1" points="477.9346,752.958,489.9346,764.958,477.9346,776.958,465.9346,764.958,477.9346,752.958" style="stroke:#181818;stroke-width:0.5;"/><path d="M583.4238,786.958 L583.4238,833.3008 L563.4238,837.3008 L583.4238,841.3008 L583.4238,887.6436 A0,0 0 0 0 583.4238,887.6436 L850.4844,887.6436 A0,0 0 0 0 850.4844,887.6436 L850.4844,796.958 L840.4844,786.958 L583.4238,786.958 A0,0 0 0 0 583.4238,786.958" fill="#FEFFDD" style="stroke:#181818;stroke-width:0.5;"/><path d="M840.4844,786.958 L840.4844,796.958 L850.4844,796.958 L840.4844,786.958" fill="#FEFFDD" style="stroke:#181818;stroke-width:0.5;"/><text fill="#000000" font-family="sans-serif" font-size="11" font-weight="bold" lengthAdjust="spacing" textLength="144.6113" x="589.4238" y="802.5928">Bonus &#8212; Animation / GUI</text><text fill="#000000" font-family="sans-serif" font-size="11" lengthAdjust="spacing" textLength="168.3086" x="589.4238" y="815.5479">_animCallback(simTime, states)</text><text fill="#000000" font-family="sans-serif" font-size="11" lengthAdjust="spacing" textLength="246.0605" x="589.4238" y="828.5029">&#8226; --animate &#8594; TerminalAnimDisplay::render()</text><text fill="#000000" font-family="sans-serif" font-size="11" lengthAdjust="spacing" textLength="214.9619" x="589.4238" y="841.458">&#8226; GUI &#8594; signal tick(simTime, snapshots)</text><text fill="#000000" font-family="sans-serif" font-size="11" lengthAdjust="spacing" textLength="203.6128" x="589.4238" y="854.4131">Called every FRAME_DELAY_US (50ms)</text><text fill="#000000" font-family="sans-serif" font-size="11" lengthAdjust="spacing" textLength="135.7329" x="589.4238" y="867.3682">after all trains processed,</text><text fill="#000000" font-family="sans-serif" font-size="11" lengthAdjust="spacing" textLength="120.0278" x="589.4238" y="880.3232">not per-train per-tick.</text><rect fill="#FFFFE0" height="48.2656" rx="12.5" ry="12.5" style="stroke:#181818;stroke-width:0.5;" width="170.9785" x="392.4453" y="813.168"/><text fill="#000000" font-family="sans-serif" font-size="12" lengthAdjust="spacing" textLength="150.9785" x="402.4453" y="834.7695">Invoke animation callback</text><text fill="#000000" font-family="sans-serif" font-size="12" lengthAdjust="spacing" textLength="78.4688" x="402.4453" y="848.9023">(if registered)</text><path d="M553.2891,913.8213 L553.2891,927.7764 L533.2891,931.7764 L553.2891,935.7764 L553.2891,949.7314 A0,0 0 0 0 553.2891,949.7314 L747.7271,949.7314 A0,0 0 0 0 747.7271,949.7314 L747.7271,923.8213 L737.7271,913.8213 L553.2891,913.8213 A0,0 0 0 0 553.2891,913.8213" fill="#FEFFDD" style="stroke:#181818;stroke-width:0.5;"/><path d="M737.7271,913.8213 L737.7271,923.8213 L747.7271,923.8213 L737.7271,913.8213" fill="#FEFFDD" style="stroke:#181818;stroke-width:0.5;"/><text fill="#000000" font-family="sans-serif" font-size="11" lengthAdjust="spacing" textLength="128.9116" x="559.2891" y="929.4561">if _stopRequested.load()</text><text fill="#000000" font-family="sans-serif" font-size="11" lengthAdjust="spacing" textLength="166.4771" x="566.25" y="942.4111">throw SimulationStopException</text><rect fill="#E0FFFF" height="48.2656" rx="12.5" ry="12.5" style="stroke:#181818;stroke-width:0.5;" width="110.709" x="422.5801" y="907.6436"/><text fill="#000000" font-family="sans-serif" font-size="12" lengthAdjust="spacing" textLength="90.709" x="432.5801" y="929.2451">Check stop flag</text><text fill="#000000" font-family="sans-serif" font-size="12" lengthAdjust="spacing" textLength="56.6016" x="432.5801" y="943.3779">(GUI only)</text><ellipse cx="477.9346" cy="986.9092" fill="none" rx="11" ry="11" style="stroke:#222222;stroke-width:1;"/><ellipse cx="477.9346" cy="986.9092" fill="#222222" rx="6" ry="6" style="stroke:#222222;stroke-width:1;"/><line style="stroke:#181818;stroke-width:1;" x1="477.9346" x2="477.9346" y1="67.4883" y2="87.4883"/><polygon fill="#181818" points="473.9346,77.4883,477.9346,87.4883,481.9346,77.4883,477.9346,81.4883" style="stroke:#181818;stroke-width:1;"/><line style="stroke:#181818;stroke-width:1;" x1="477.9346" x2="477.9346" y1="121.6211" y2="148.9873"/><polygon fill="#181818" points="473.9346,138.9873,477.9346,148.9873,481.9346,138.9873,477.9346,142.9873" style="stroke:#181818;stroke-width:1;"/><line style="stroke:#181818;stroke-width:1;" x1="477.9346" x2="477.9346" y1="183.1201" y2="203.1201"/><polygon fill="#181818" points="473.9346,193.1201,477.9346,203.1201,481.9346,193.1201,477.9346,197.1201" style="stroke:#181818;stroke-width:1;"/><line style="stroke:#181818;stroke-width:1;" x1="104.8379" x2="104.8379" y1="349.2295" y2="374.4844"/><polygon fill="#181818" points="100.8379,364.4844,104.8379,374.4844,108.8379,364.4844,104.8379,368.4844" style="stroke:#181818;stroke-width:1;"/><line style="stroke:#181818;stroke-width:1;" x1="439.6802" x2="439.6802" y1="349.2295" y2="374.4844"/><polygon fill="#181818" points="435.6802,364.4844,439.6802,374.4844,443.6802,364.4844,439.6802,368.4844" style="stroke:#181818;stroke-width:1;"/><line style="stroke:#181818;stroke-width:1;" x1="870.0908" x2="870.0908" y1="345.752" y2="370.1182"/><polygon fill="#181818" points="866.0908,360.1182,870.0908,370.1182,874.0908,360.1182,870.0908,364.1182" style="stroke:#181818;stroke-width:1;"/><line style="stroke:#181818;stroke-width:1;" x1="104.8379" x2="104.8379" y1="281.2529" y2="315.0967"/><polygon fill="#181818" points="100.8379,305.0967,104.8379,315.0967,108.8379,305.0967,104.8379,309.0967" style="stroke:#181818;stroke-width:1;"/><line style="stroke:#181818;stroke-width:1;" x1="104.8379" x2="104.8379" y1="408.6172" y2="428.6172"/><polygon fill="#181818" points="100.8379,418.6172,104.8379,428.6172,108.8379,418.6172,104.8379,422.6172" style="stroke:#181818;stroke-width:1;"/><line style="stroke:#181818;stroke-width:1;" x1="439.6802" x2="439.6802" y1="281.2529" y2="315.0967"/><polygon fill="#181818" points="435.6802,305.0967,439.6802,315.0967,443.6802,305.0967,439.6802,309.0967" style="stroke:#181818;stroke-width:1;"/><line style="stroke:#181818;stroke-width:1;" x1="439.6802" x2="439.6802" y1="408.6172" y2="428.6172"/><polygon fill="#181818" points="435.6802,418.6172,439.6802,428.6172,443.6802,418.6172,439.6802,422.6172" style="stroke:#181818;stroke-width:1;"/><line style="stroke:#181818;stroke-width:1;" x1="189.6758" x2="367.4751" y1="269.2529" y2="269.2529"/><polygon fill="#181818" points="357.4751,265.2529,367.4751,269.2529,357.4751,273.2529,361.4751,269.2529" style="stroke:#181818;stroke-width:1;"/><line style="stroke:#181818;stroke-width:1;" x1="477.9346" x2="477.9346" y1="237.2529" y2="242.2529"/><line style="stroke:#181818;stroke-width:1;" x1="477.9346" x2="104.8379" y1="242.2529" y2="242.2529"/><line style="stroke:#181818;stroke-width:1;" x1="104.8379" x2="104.8379" y1="242.2529" y2="257.2529"/><polygon fill="#181818" points="100.8379,247.2529,104.8379,257.2529,108.8379,247.2529,104.8379,251.2529" style="stroke:#181818;stroke-width:1;"/><line style="stroke:#181818;stroke-width:1;" x1="511.8853" x2="870.0908" y1="269.2529" y2="269.2529"/><line style="stroke:#181818;stroke-width:1;" x1="870.0908" x2="870.0908" y1="269.2529" y2="311.6191"/><polygon fill="#181818" points="866.0908,301.6191,870.0908,311.6191,874.0908,301.6191,870.0908,305.6191" style="stroke:#181818;stroke-width:1;"/><line style="stroke:#181818;stroke-width:1;" x1="870.0908" x2="870.0908" y1="404.251" y2="428.6172"/><polygon fill="#181818" points="866.0908,418.6172,870.0908,428.6172,874.0908,418.6172,870.0908,422.6172" style="stroke:#181818;stroke-width:1;"/><line style="stroke:#181818;stroke-width:1;" x1="104.8379" x2="870.0908" y1="428.6172" y2="428.6172"/><line style="stroke:#181818;stroke-width:1;" x1="477.9346" x2="477.9346" y1="428.6172" y2="448.6172"/><polygon fill="#181818" points="473.9346,438.6172,477.9346,448.6172,481.9346,438.6172,477.9346,442.6172" style="stroke:#181818;stroke-width:1;"/><line style="stroke:#181818;stroke-width:1;" x1="360.9053" x2="273.5066" y1="514.75" y2="514.75"/><line style="stroke:#181818;stroke-width:1;" x1="273.5066" x2="273.5066" y1="514.75" y2="550.5938"/><polygon fill="#181818" points="269.5066,540.5938,273.5066,550.5938,277.5066,540.5938,273.5066,544.5938" style="stroke:#181818;stroke-width:1;"/><line style="stroke:#181818;stroke-width:1;" x1="594.9639" x2="682.3625" y1="514.75" y2="514.75"/><line style="stroke:#181818;stroke-width:1;" x1="682.3625" x2="682.3625" y1="514.75" y2="536.75"/><polygon fill="#181818" points="678.3625,526.75,682.3625,536.75,686.3625,526.75,682.3625,530.75" style="stroke:#181818;stroke-width:1;"/><line style="stroke:#181818;stroke-width:1;" x1="273.5066" x2="273.5066" y1="584.7266" y2="616.5703"/><line style="stroke:#181818;stroke-width:1;" x1="273.5066" x2="465.9346" y1="616.5703" y2="616.5703"/><polygon fill="#181818" points="455.9346,612.5703,465.9346,616.5703,455.9346,620.5703,459.9346,616.5703" style="stroke:#181818;stroke-width:1;"/><line style="stroke:#181818;stroke-width:1;" x1="682.3625" x2="682.3625" y1="570.8828" y2="616.5703"/><line style="stroke:#181818;stroke-width:1;" x1="682.3625" x2="489.9346" y1="616.5703" y2="616.5703"/><polygon fill="#181818" points="499.9346,612.5703,489.9346,616.5703,499.9346,620.5703,495.9346,616.5703" style="stroke:#181818;stroke-width:1;"/><line style="stroke:#181818;stroke-width:1;" x1="477.9346" x2="477.9346" y1="482.75" y2="502.75"/><polygon fill="#181818" points="473.9346,492.75,477.9346,502.75,481.9346,492.75,477.9346,496.75" style="stroke:#181818;stroke-width:1;"/><line style="stroke:#181818;stroke-width:1;" x1="477.9346" x2="477.9346" y1="672.5703" y2="697.9365"/><polygon fill="#181818" points="473.9346,687.9365,477.9346,697.9365,481.9346,687.9365,477.9346,691.9365" style="stroke:#181818;stroke-width:1;"/><line style="stroke:#181818;stroke-width:1;" x1="542.9502" x2="758.9121" y1="660.5703" y2="660.5703"/><polygon fill="#181818" points="754.9121,705.0029,758.9121,715.0029,762.9121,705.0029,758.9121,709.0029" style="stroke:#181818;stroke-width:1;"/><line style="stroke:#181818;stroke-width:1;" x1="758.9121" x2="758.9121" y1="660.5703" y2="764.958"/><line style="stroke:#181818;stroke-width:1;" x1="758.9121" x2="489.9346" y1="764.958" y2="764.958"/><polygon fill="#181818" points="499.9346,760.958,489.9346,764.958,499.9346,768.958,495.9346,764.958" style="stroke:#181818;stroke-width:1;"/><line style="stroke:#181818;stroke-width:1;" x1="477.9346" x2="477.9346" y1="732.0693" y2="752.958"/><polygon fill="#181818" points="473.9346,742.958,477.9346,752.958,481.9346,742.958,477.9346,746.958" style="stroke:#181818;stroke-width:1;"/><line style="stroke:#181818;stroke-width:1;" x1="477.9346" x2="477.9346" y1="628.5703" y2="648.5703"/><polygon fill="#181818" points="473.9346,638.5703,477.9346,648.5703,481.9346,638.5703,477.9346,642.5703" style="stroke:#181818;stroke-width:1;"/><line style="stroke:#181818;stroke-width:1;" x1="477.9346" x2="477.9346" y1="776.958" y2="813.168"/><polygon fill="#181818" points="473.9346,803.168,477.9346,813.168,481.9346,803.168,477.9346,807.168" style="stroke:#181818;stroke-width:1;"/><line style="stroke:#181818;stroke-width:1;" x1="477.9346" x2="477.9346" y1="861.4336" y2="907.6436"/><polygon fill="#181818" points="473.9346,897.6436,477.9346,907.6436,481.9346,897.6436,477.9346,901.6436" style="stroke:#181818;stroke-width:1;"/><line style="stroke:#181818;stroke-width:1;" x1="477.9346" x2="477.9346" y1="955.9092" y2="975.9092"/><polygon fill="#181818" points="473.9346,965.9092,477.9346,975.9092,481.9346,965.9092,477.9346,969.9092" style="stroke:#181818;stroke-width:1;"/><!--SRC=[VLLDZjis5Dxh50_fHfxQoKo0PE69KpYsamumIGFRimXGmE28JpPXYbH9oXDrbLKFK1JelaV84PARp4dwICgsv9bsOKFMztw-xtkFjDqALJB32k2OiqgwjrgvXVWTuU8YiGVGRXZNTqAj8MVIOWiPPqxiXAkFUS-Jn0ad4JvkQYio2pEr5WhX_ijViA0IX2n5jeKfPi8AhI2TBc445s0nquhtaiGwPboI3EV8E6ILCQWSq4k7budI3i68zSOb0BP4vAl2zg7KzXUrm7L1eQl2G_7v6jNQRLP5FyPUYq8GRYc0PHdAETNia_JcCK75mNUWvXDTb1NrkZLiwuLpGGnKTah1mpWbZ2Jilds5Pv0-X-z_7sls7YkwBmPExva2XPtKzb5BFQFqKLSF33g2Mnr43kanxTNeoE-d7hWDajirsZ2BeYBI0UvHh-6uB6KTQQDXZWPpIQyxV1h3OJ0wolDQfyi0Kk-8lu9pkF_Zp-RN2Cu9Fb2aLYppvGbuyYQQ- -GoGLehJtvVuJYk1yGpfkBqFCys-SFB_oF_u-Wu-iV8lswrxgWullvFEOiGMfMD7aYPQzAbpmjKtpEX77qYSDaji0Tz0SL5JYjpKtBFbEOjegwEglOQU6cnMvJLtOfEvEkJXMfx75Z-p1IdWxhVJMUOslT_uElzbtzWp7VxVLRusL48nmCusI2TTznH9Gli1BpAWJIZAP0BBpHOxYy0-jRbKXHesh6vK4o6e8APBJ1Zn0vvUoBHUQM3ZWbTIq9L2EHl8-PWhNU5I9aQNfutbuzzOCG7xKHUWxwrQ2Zs4VbQBGsDRE6mJ1tHxKDkD5quJlS3xe_Z70iAeKtlGnns7oX7lZEitFGU9z-G_E7QD_g4KkgxuPNQwIq2Kw88Iqv7GSfRbcr_LIcfCRYcNcYGzqxMvEpiZLPLF3xZG_OpU7TpTNP6-CgNd3J5KYkAPH0IxjpWWtT_C8YDuuoMD38_2r-ExfTIideuf9kQeqdt6LG-pbEi_TISw1HNhBGRxK9ztviMDuxZxNpyVhQQpgx7drOt2qXVd1SXYEKa3YZIxwDG5agZCxGMUJ-E1KeqWu359-htj7KCefUJcgbXN4c_OP1BjYR_F5UjP7rg7Vcwyd5p_Ar2SfS_bPhn815eLuo-et-refB1qWK5pZvdMFeVhSw-GF8l]--></g></svg>