<svg xmlns="http://www.w3.org/2000/svg" xmlns:xlink="http://www.w3.org/1999/xlink" contentStyleType="text/css" data-diagram-type="SEQUENCE" height="1919px" preserveAspectRatio="none" style="width:1466px;height:1919px;background:#FFFFFF;" version="1.1" viewBox="0 0 1466 1919" width="1466px" zoomAndPan="magnify"><title>Input Parsing &#8212; File Loading Sequence (CLI + GUI)</title><defs/><g><text fill="#000000" font-family="sans-serif" font-size="14" font-weight="bold" lengthAdjust="spacing" textLength="363.2754" x="547.8022" y="28.5352">Input Parsing &#8212; File Loading Sequence (CLI + GUI)</text><rect fill="none" height="195.5508" style="stroke:#000000;stroke-width:1.5;" width="569.4038" x="10" y="87.4434"/><rect fill="none" height="617.1914" style="stroke:#000000;stroke-width:1.5;" width="1166.1348" x="283.7451" y="377.9043"/><rect fill="none" height="695.1465" style="stroke:#000000;stroke-width:1.5;" width="1113.4102" x="283.7451" y="1090.0059"/><rect fill="none" height="334.5957" style="stroke:#000000;stroke-width:1.5;" width="186.9788" x="734.3391" y="1378.6465"/><g><title>main . MainWindow</title><rect fill="#000000" fill-opacity="0.00000" height="1817.5293" width="8" x="76.104" y="70.4434"/><line style="stroke:#181818;stroke-width:0.5;stroke-dasharray:5,5;" x1="80" x2="80" y1="70.4434" y2="1887.9727"/></g><g><title>InputHandler</title><rect fill="#000000" fill-opacity="0.00000" height="1817.5293" width="8" x="331.5337" y="70.4434"/><line style="stroke:#181818;stroke-width:0.5;stroke-dasharray:5,5;" x1="334.7451" x2="334.7451" y1="70.4434" y2="1887.9727"/></g><g><title>RailNetwork</title><rect fill="#000000" fill-opacity="0.00000" height="1817.5293" width="8" x="691.3784" y="70.4434"/><line style="stroke:#181818;stroke-width:0.5;stroke-dasharray:5,5;" x1="694.4177" x2="694.4177" y1="70.4434" y2="1887.9727"/></g><g><title>TrainFactory</title><rect fill="#000000" fill-opacity="0.00000" height="1817.5293" width="8" x="780.4707" y="70.4434"/><line style="stroke:#181818;stroke-width:0.5;stroke-dasharray:5,5;" x1="784.3391" x2="784.3391" y1="70.4434" y2="1887.9727"/></g><g><title>Train</title><rect fill="#000000" fill-opacity="0.00000" height="138.7529" width="8" x="1362.3865" y="1749.2197"/><line style="stroke:#181818;stroke-width:0.5;stroke-dasharray:5,5;" x1="1365.6177" x2="1365.6177" y1="1749.2197" y2="1887.9727"/></g><g><title>Event</title><rect fill="#000000" fill-opacity="0.00000" height="901.8545" width="8" x="1414.5176" y="986.1182"/><line style="stroke:#181818;stroke-width:0.5;stroke-dasharray:5,5;" x1="1418.1553" x2="1418.1553" y1="986.1182" y2="1887.9727"/></g><g class="participant participant-head" data-participant="Main"><rect fill="#E2E2F0" height="26.9551" rx="2.5" ry="2.5" style="stroke:#181818;stroke-width:0.5;" width="120.208" x="20" y="42.4883"/><text fill="#000000" font-family="sans-serif" font-size="11" lengthAdjust="spacing" textLength="106.208" x="27" y="60.123">main / MainWindow</text></g><g class="participant participant-tail" data-participant="Main"><rect fill="#E2E2F0" height="26.9551" rx="2.5" ry="2.5" style="stroke:#181818;stroke-width:0.5;" width="120.208" x="20" y="1886.9727"/><text fill="#000000" font-family="sans-serif" font-size="11" lengthAdjust="spacing" textLength="106.208" x="27" y="1904.6074">main / MainWindow</text></g><g class="participant participant-head" data-participant="IH"><rect fill="#E2E2F0" height="26.9551" rx="2.5" ry="2.5" style="stroke:#181818;stroke-width:0.5;" width="83.5771" x="293.7451" y="42.4883"/><text fill="#000000" font-family="sans-serif" font-size="11" lengthAdjust="spacing" textLength="69.5771" x="300.7451" y="60.123">InputHandler</text></g><g class="participant participant-tail" data-participant="IH"><rect fill="#E2E2F0" height="26.9551" rx="2.5" ry="2.5" style="stroke:#181818;stroke-width:0.5;" width="83.5771" x="293.7451" y="1886.9727"/><text fill="#000000" font-family="sans-serif" font-size="11" lengthAdjust="spacing" textLength="69.5771" x="300.7451" y="1904.6074">InputHandler</text></g><g class="participant participant-head" data-participant="Net"><rect fill="#E2E2F0" height="26.9551" rx="2.5" ry="2.5" style="stroke:#181818;stroke-width:0.5;" width="77.9214" x="656.4177" y="42.4883"/><text fill="#000000" font-family="sans-serif" font-size="11" lengthAdjust="spacing" textLength="63.9214" x="663.4177" y="60.123">RailNetwork</text></g><g class="participant participant-tail" data-participant="Net"><rect fill="#E2E2F0" height="26.9551" rx="2.5" ry="2.5" style="stroke:#181818;stroke-width:0.5;" width="77.9214" x="656.4177" y="1886.9727"/><text fill="#000000" font-family="sans-serif" font-size="11" lengthAdjust="spacing" textLength="63.9214" x="663.4177" y="1904.6074">RailNetwork</text></g><g class="participant participant-head" data-participant="TF"><rect fill="#E2E2F0" height="26.9551" rx="2.5" ry="2.5" style="stroke:#181818;stroke-width:0.5;" width="80.2632" x="744.3391" y="42.4883"/><text fill="#000000" font-family="sans-serif" font-size="11" lengthAdjust="spacing" textLength="66.2632" x="751.3391" y="60.123">TrainFactory</text></g><g class="participant participant-tail" data-participant="TF"><rect fill="#E2E2F0" height="26.9551" rx="2.5" ry="2.5" style="stroke:#181818;stroke-width:0.5;" width="80.2632" x="744.3391" y="1886.9727"/><text fill="#000000" font-family="sans-serif" font-size="11" lengthAdjust="spacing" textLength="66.2632" x="751.3391" y="1904.6074">TrainFactory</text></g><g class="participant participant-tail" data-participant="T"><rect fill="#E2E2F0" height="26.9551" rx="2.5" ry="2.5" style="stroke:#181818;stroke-width:0.5;" width="41.5376" x="1345.6177" y="1886.9727"/><text fill="#000000" font-family="sans-serif" font-size="11" lengthAdjust="spacing" textLength="27.5376" x="1352.6177" y="1904.6074">Train</text></g><g class="participant participant-tail" data-participant="Ev"><rect fill="#E2E2F0" height="26.9551" rx="2.5" ry="2.5" style="stroke:#181818;stroke-width:0.5;" width="42.7246" x="1397.1553" y="1886.9727"/><text fill="#000000" font-family="sans-serif" font-size="11" lengthAdjust="spacing" textLength="28.7246" x="1404.1553" y="1904.6074">Event</text></g><path d="M10,87.4434 L69.502,87.4434 L69.502,92.3984 L59.502,102.3984 L10,102.3984 L10,87.4434" fill="#EEEEEE" style="stroke:#000000;stroke-width:1.5;"/><rect fill="none" height="195.5508" style="stroke:#000000;stroke-width:1.5;" width="569.4038" x="10" y="87.4434"/><text fill="#000000" font-family="sans-serif" font-size="11" font-weight="bold" lengthAdjust="spacing" textLength="14.502" x="25" y="99.0781">alt</text><text fill="#000000" font-family="sans-serif" font-size="11" font-weight="bold" lengthAdjust="spacing" textLength="55.0967" x="84.502" y="100.0781">[CLI path]</text><g class="message" data-participant-1="Main" data-participant-2="IH"><polygon fill="#181818" points="323.5337,117.3535,333.5337,121.3535,323.5337,125.3535,327.5337,121.3535" style="stroke:#181818;stroke-width:1;"/><line style="stroke:#181818;stroke-width:1;" x1="80.104" x2="329.5337" y1="121.3535" y2="121.3535"/><text fill="#000000" font-family="sans-serif" font-size="11" lengthAdjust="spacing" textLength="188.4341" x="113.6018" y="117.0332">loadData("network.txt", "trains.txt")</text></g><line style="stroke:#000000;stroke-width:1;stroke-dasharray:2,2;" x1="10" x2="579.4038" y1="130.3535" y2="130.3535"/><text fill="#000000" font-family="sans-serif" font-size="11" font-weight="bold" lengthAdjust="spacing" textLength="163.4585" x="15" y="140.9883">[GUI path (deferred loading)]</text><g class="message" data-participant-1="Main" data-participant-2="IH"><polygon fill="#181818" points="323.5337,159.2637,333.5337,163.2637,323.5337,167.2637,327.5337,163.2637" style="stroke:#181818;stroke-width:1;"/><line style="stroke:#181818;stroke-width:1;" x1="80.104" x2="329.5337" y1="163.2637" y2="163.2637"/><text fill="#000000" font-family="sans-serif" font-size="11" lengthAdjust="spacing" textLength="231.4297" x="92.104" y="158.9434">parseNetworkFile(filepath, network, events)</text></g><path d="M340,176.2637 L340,250.2637 L569,250.2637 L569,186.2637 L559,176.2637 L340,176.2637" fill="#FEFFDD" style="stroke:#181818;stroke-width:0.5;"/><path d="M559,176.2637 L559,186.2637 L569,186.2637 L559,176.2637" fill="#FEFFDD" style="stroke:#181818;stroke-width:0.5;"/><text fill="#000000" font-family="sans-serif" font-size="11" font-weight="bold" lengthAdjust="spacing" textLength="172.4712" x="346" y="191.8984">Bonus &#8212; GUI Deferred Parsing</text><text fill="#000000" font-family="sans-serif" font-size="11" lengthAdjust="spacing" textLength="208.4038" x="346" y="204.8535">parseNetworkFile() and parseTrainFile()</text><text fill="#000000" font-family="sans-serif" font-size="11" lengthAdjust="spacing" textLength="173.2446" x="346" y="217.8086">are public static methods, called</text><text fill="#000000" font-family="sans-serif" font-size="11" lengthAdjust="spacing" textLength="194.353" x="346" y="230.7637">independently by MainWindow when</text><text fill="#000000" font-family="sans-serif" font-size="11" lengthAdjust="spacing" textLength="170.9727" x="346" y="243.7188">user loads files via Open dialog.</text><g class="message" data-participant-1="Main" data-participant-2="IH"><polygon fill="#181818" points="323.5337,270.9941,333.5337,274.9941,323.5337,278.9941,327.5337,274.9941" style="stroke:#181818;stroke-width:1;"/><line style="stroke:#181818;stroke-width:1;" x1="80.104" x2="329.5337" y1="274.9941" y2="274.9941"/><text fill="#000000" font-family="sans-serif" font-size="11" lengthAdjust="spacing" textLength="122.7832" x="146.4272" y="270.6738">parseTrainFile(filepath)</text></g><rect fill="#EEEEEE" height="3" style="stroke:#EEEEEE;stroke-width:1;" width="1459.8799" x="0" y="309.4717"/><line style="stroke:#000000;stroke-width:1;" x1="0" x2="1459.8799" y1="309.4717" y2="309.4717"/><line style="stroke:#000000;stroke-width:1;" x1="0" x2="1459.8799" y1="312.4717" y2="312.4717"/><rect fill="#EEEEEE" height="20.9551" style="stroke:#000000;stroke-width:2;" width="135.1182" x="662.3809" y="299.9941"/><text fill="#000000" font-family="sans-serif" font-size="11" font-weight="bold" lengthAdjust="spacing" textLength="117.4927" x="668.3809" y="314.6289">Network File Parsing</text><g class="message" data-participant-1="IH" data-participant-2="IH"><line style="stroke:#181818;stroke-width:1;" x1="335.5337" x2="377.5337" y1="349.9043" y2="349.9043"/><line style="stroke:#181818;stroke-width:1;" x1="377.5337" x2="377.5337" y1="349.9043" y2="362.9043"/><line style="stroke:#181818;stroke-width:1;" x1="336.5337" x2="377.5337" y1="362.9043" y2="362.9043"/><polygon fill="#181818" points="346.5337,358.9043,336.5337,362.9043,346.5337,366.9043,342.5337,362.9043" style="stroke:#181818;stroke-width:1;"/><text fill="#000000" font-family="sans-serif" font-size="11" lengthAdjust="spacing" textLength="231.4297" x="342.5337" y="345.584">parseNetworkFile(filepath, network, events)</text></g><path d="M283.7451,377.9043 L486.4458,377.9043 L486.4458,382.8594 L476.4458,392.8594 L283.7451,392.8594 L283.7451,377.9043" fill="#EEEEEE" style="stroke:#000000;stroke-width:1.5;"/><rect fill="none" height="617.1914" style="stroke:#000000;stroke-width:1.5;" width="1166.1348" x="283.7451" y="377.9043"/><text fill="#000000" font-family="sans-serif" font-size="11" font-weight="bold" lengthAdjust="spacing" textLength="157.7007" x="298.7451" y="389.5391">Read lines from network.txt</text><g class="message" data-participant-1="IH" data-participant-2="IH"><line style="stroke:#181818;stroke-width:1;" x1="335.5337" x2="377.5337" y1="411.8145" y2="411.8145"/><line style="stroke:#181818;stroke-width:1;" x1="377.5337" x2="377.5337" y1="411.8145" y2="424.8145"/><line style="stroke:#181818;stroke-width:1;" x1="336.5337" x2="377.5337" y1="424.8145" y2="424.8145"/><polygon fill="#181818" points="346.5337,420.8145,336.5337,424.8145,346.5337,428.8145,342.5337,424.8145" style="stroke:#181818;stroke-width:1;"/><text fill="#000000" font-family="sans-serif" font-size="11" lengthAdjust="spacing" textLength="117.7773" x="342.5337" y="407.4941">read line "Node CityA"</text></g><g class="message" data-participant-1="IH" data-participant-2="Net"><polygon fill="#181818" points="683.3784,447.7695,693.3784,451.7695,683.3784,455.7695,687.3784,451.7695" style="stroke:#181818;stroke-width:1;"/><line style="stroke:#181818;stroke-width:1;" x1="335.5337" x2="689.3784" y1="451.7695" y2="451.7695"/><text fill="#000000" font-family="sans-serif" font-size="11" lengthAdjust="spacing" textLength="91.4697" x="469.7212" y="447.4492">addNode("CityA")</text></g><g class="message" data-participant-1="IH" data-participant-2="IH"><line style="stroke:#181818;stroke-width:1;" x1="335.5337" x2="377.5337" y1="478.7246" y2="478.7246"/><line style="stroke:#181818;stroke-width:1;" x1="377.5337" x2="377.5337" y1="478.7246" y2="491.7246"/><line style="stroke:#181818;stroke-width:1;" x1="336.5337" x2="377.5337" y1="491.7246" y2="491.7246"/><polygon fill="#181818" points="346.5337,487.7246,336.5337,491.7246,346.5337,495.7246,342.5337,491.7246" style="stroke:#181818;stroke-width:1;"/><text fill="#000000" font-family="sans-serif" font-size="11" lengthAdjust="spacing" textLength="116.5151" x="342.5337" y="474.4043">read line "Node CityB"</text></g><g class="message" data-participant-1="IH" data-participant-2="Net"><polygon fill="#181818" points="683.3784,514.6797,693.3784,518.6797,683.3784,522.6797,687.3784,518.6797" style="stroke:#181818;stroke-width:1;"/><line style="stroke:#181818;stroke-width:1;" x1="335.5337" x2="689.3784" y1="518.6797" y2="518.6797"/><text fill="#000000" font-family="sans-serif" font-size="11" lengthAdjust="spacing" textLength="90.2075" x="470.3523" y="514.3594">addNode("CityB")</text></g><g class="message" data-participant-1="IH" data-participant-2="IH"><line style="stroke:#181818;stroke-width:1;" x1="335.5337" x2="377.5337" y1="545.6348" y2="545.6348"/><line style="stroke:#181818;stroke-width:1;" x1="377.5337" x2="377.5337" y1="545.6348" y2="558.6348"/><line style="stroke:#181818;stroke-width:1;" x1="336.5337" x2="377.5337" y1="558.6348" y2="558.6348"/><polygon fill="#181818" points="346.5337,554.6348,336.5337,558.6348,346.5337,562.6348,342.5337,558.6348" style="stroke:#181818;stroke-width:1;"/><text fill="#000000" font-family="sans-serif" font-size="11" lengthAdjust="spacing" textLength="202.3022" x="342.5337" y="541.3145">read line "Rail CityA CityB 15.0 250.0"</text></g><g class="message" data-participant-1="IH" data-participant-2="Net"><polygon fill="#181818" points="683.3784,581.5898,693.3784,585.5898,683.3784,589.5898,687.3784,585.5898" style="stroke:#181818;stroke-width:1;"/><line style="stroke:#181818;stroke-width:1;" x1="335.5337" x2="689.3784" y1="585.5898" y2="585.5898"/><text fill="#000000" font-family="sans-serif" font-size="11" lengthAdjust="spacing" textLength="235.9253" x="397.4934" y="581.2695">addConnection("CityA", "CityB", 15.0, 250.0)</text></g><path d="M700,598.5898 L700,633.5898 L880,633.5898 L880,608.5898 L870,598.5898 L700,598.5898" fill="#FEFFDD" style="stroke:#181818;stroke-width:0.5;"/><path d="M870,598.5898 L870,608.5898 L880,608.5898 L870,598.5898" fill="#FEFFDD" style="stroke:#181818;stroke-width:0.5;"/><text fill="#000000" font-family="sans-serif" font-size="11" lengthAdjust="spacing" textLength="128.0146" x="706" y="614.2246">Bidirectional: adds edge</text><text fill="#000000" font-family="sans-serif" font-size="11" lengthAdjust="spacing" textLength="159.2261" x="706" y="627.1797">CityA&#8594;CityB and CityB&#8594;CityA</text><g class="message" data-participant-1="IH" data-participant-2="IH"><line style="stroke:#181818;stroke-width:1;" x1="335.5337" x2="377.5337" y1="658.4551" y2="658.4551"/><line style="stroke:#181818;stroke-width:1;" x1="377.5337" x2="377.5337" y1="658.4551" y2="671.4551"/><line style="stroke:#181818;stroke-width:1;" x1="336.5337" x2="377.5337" y1="671.4551" y2="671.4551"/><polygon fill="#181818" points="346.5337,667.4551,336.5337,671.4551,346.5337,675.4551,342.5337,671.4551" style="stroke:#181818;stroke-width:1;"/><text fill="#000000" font-family="sans-serif" font-size="11" lengthAdjust="spacing" textLength="298.5845" x="342.5337" y="654.1348">read line: Event "Passenger's Discomfort" 0.2 30m CityA</text></g><g class="message" data-participant-1="IH" data-participant-2="IH"><line style="stroke:#181818;stroke-width:1;" x1="335.5337" x2="377.5337" y1="698.4102" y2="698.4102"/><line style="stroke:#181818;stroke-width:1;" x1="377.5337" x2="377.5337" y1="698.4102" y2="711.4102"/><line style="stroke:#181818;stroke-width:1;" x1="336.5337" x2="377.5337" y1="711.4102" y2="711.4102"/><polygon fill="#181818" points="346.5337,707.4102,336.5337,711.4102,346.5337,715.4102,342.5337,711.4102" style="stroke:#181818;stroke-width:1;"/><text fill="#000000" font-family="sans-serif" font-size="11" lengthAdjust="spacing" textLength="267.0239" x="342.5337" y="694.0898">parseQuotedOrWord() &#8594; "Passenger's Discomfort"</text></g><g class="message" data-participant-1="IH" data-participant-2="IH"><line style="stroke:#181818;stroke-width:1;" x1="335.5337" x2="377.5337" y1="738.3652" y2="738.3652"/><line style="stroke:#181818;stroke-width:1;" x1="377.5337" x2="377.5337" y1="738.3652" y2="751.3652"/><line style="stroke:#181818;stroke-width:1;" x1="336.5337" x2="377.5337" y1="751.3652" y2="751.3652"/><polygon fill="#181818" points="346.5337,747.3652,336.5337,751.3652,346.5337,755.3652,342.5337,751.3652" style="stroke:#181818;stroke-width:1;"/><text fill="#000000" font-family="sans-serif" font-size="11" lengthAdjust="spacing" textLength="218.4907" x="342.5337" y="734.0449">parseDuration("30m") &#8594; 1800.0 seconds</text></g><g class="message" data-participant-1="IH" data-participant-2="Ev"><polygon fill="#181818" points="1385.1553,774.3203,1395.1553,778.3203,1385.1553,782.3203,1389.1553,778.3203" style="stroke:#181818;stroke-width:1;"/><line style="stroke:#181818;stroke-width:1;" x1="335.5337" x2="1391.1553" y1="778.3203" y2="778.3203"/><text fill="#000000" font-family="sans-serif" font-size="11" lengthAdjust="spacing" textLength="281.6118" x="725.5386" y="774">Event("Passenger's Discomfort", 0.2, 1800.0, "CityA")</text></g><rect fill="#E2E2F0" height="26.9551" rx="2.5" ry="2.5" style="stroke:#181818;stroke-width:0.5;" width="42.7246" x="1397.1553" y="759.3652"/><text fill="#000000" font-family="sans-serif" font-size="11" lengthAdjust="spacing" textLength="28.7246" x="1404.1553" y="777">Event</text><g class="message" data-participant-1="IH" data-participant-2="IH"><line style="stroke:#181818;stroke-width:1;" x1="335.5337" x2="377.5337" y1="816.2754" y2="816.2754"/><line style="stroke:#181818;stroke-width:1;" x1="377.5337" x2="377.5337" y1="816.2754" y2="829.2754"/><line style="stroke:#181818;stroke-width:1;" x1="336.5337" x2="377.5337" y1="829.2754" y2="829.2754"/><polygon fill="#181818" points="346.5337,825.2754,336.5337,829.2754,346.5337,833.2754,342.5337,829.2754" style="stroke:#181818;stroke-width:1;"/><text fill="#000000" font-family="sans-serif" font-size="11" lengthAdjust="spacing" textLength="304.8848" x="342.5337" y="811.9551">read line: Event "Track Maintenance" 0.1 45m CityA CityB</text></g><g class="message" data-participant-1="IH" data-participant-2="IH"><line style="stroke:#181818;stroke-width:1;" x1="335.5337" x2="377.5337" y1="856.2305" y2="856.2305"/><line style="stroke:#181818;stroke-width:1;" x1="377.5337" x2="377.5337" y1="856.2305" y2="869.2305"/><line style="stroke:#181818;stroke-width:1;" x1="336.5337" x2="377.5337" y1="869.2305" y2="869.2305"/><polygon fill="#181818" points="346.5337,865.2305,336.5337,869.2305,346.5337,873.2305,342.5337,869.2305" style="stroke:#181818;stroke-width:1;"/><text fill="#000000" font-family="sans-serif" font-size="11" lengthAdjust="spacing" textLength="242.8647" x="342.5337" y="851.9102">parseQuotedOrWord() &#8594; "Track Maintenance"</text></g><g class="message" data-participant-1="IH" data-participant-2="IH"><line style="stroke:#181818;stroke-width:1;" x1="335.5337" x2="377.5337" y1="896.1855" y2="896.1855"/><line style="stroke:#181818;stroke-width:1;" x1="377.5337" x2="377.5337" y1="896.1855" y2="909.1855"/><line style="stroke:#181818;stroke-width:1;" x1="336.5337" x2="377.5337" y1="909.1855" y2="909.1855"/><polygon fill="#181818" points="346.5337,905.1855,336.5337,909.1855,346.5337,913.1855,342.5337,909.1855" style="stroke:#181818;stroke-width:1;"/><text fill="#000000" font-family="sans-serif" font-size="11" lengthAdjust="spacing" textLength="218.4907" x="342.5337" y="891.8652">parseDuration("45m") &#8594; 2700.0 seconds</text></g><g class="message" data-participant-1="IH" data-participant-2="IH"><line style="stroke:#181818;stroke-width:1;" x1="335.5337" x2="377.5337" y1="936.1406" y2="936.1406"/><line style="stroke:#181818;stroke-width:1;" x1="377.5337" x2="377.5337" y1="936.1406" y2="949.1406"/><line style="stroke:#181818;stroke-width:1;" x1="336.5337" x2="377.5337" y1="949.1406" y2="949.1406"/><polygon fill="#181818" points="346.5337,945.1406,336.5337,949.1406,346.5337,953.1406,342.5337,949.1406" style="stroke:#181818;stroke-width:1;"/><text fill="#000000" font-family="sans-serif" font-size="11" lengthAdjust="spacing" textLength="301.1035" x="342.5337" y="931.8203">read optional nodeName2 &#8594; "CityB" (rail segment event)</text></g><g class="message" data-participant-1="IH" data-participant-2="Ev"><polygon fill="#181818" points="1385.1553,972.0957,1395.1553,976.0957,1385.1553,980.0957,1389.1553,976.0957" style="stroke:#181818;stroke-width:1;"/><line style="stroke:#181818;stroke-width:1;" x1="335.5337" x2="1391.1553" y1="976.0957" y2="976.0957"/><text fill="#000000" font-family="sans-serif" font-size="11" lengthAdjust="spacing" textLength="299.6104" x="716.5393" y="971.7754">Event("Track Maintenance", 0.1, 2700.0, "CityA", "CityB")</text></g><rect fill="#E2E2F0" height="26.9551" rx="2.5" ry="2.5" style="stroke:#181818;stroke-width:0.5;" width="42.7246" x="1397.1553" y="957.1406"/><text fill="#000000" font-family="sans-serif" font-size="11" lengthAdjust="spacing" textLength="28.7246" x="1404.1553" y="974.7754">Event</text><rect fill="#EEEEEE" height="3" style="stroke:#EEEEEE;stroke-width:1;" width="1459.8799" x="0" y="1021.5732"/><line style="stroke:#000000;stroke-width:1;" x1="0" x2="1459.8799" y1="1021.5732" y2="1021.5732"/><line style="stroke:#000000;stroke-width:1;" x1="0" x2="1459.8799" y1="1024.5732" y2="1024.5732"/><rect fill="#EEEEEE" height="20.9551" style="stroke:#000000;stroke-width:2;" width="210.4531" x="624.7134" y="1012.0957"/><text fill="#000000" font-family="sans-serif" font-size="11" font-weight="bold" lengthAdjust="spacing" textLength="192.8276" x="630.7134" y="1026.7305">Train File Parsing (9-field format)</text><g class="message" data-participant-1="IH" data-participant-2="IH"><line style="stroke:#181818;stroke-width:1;" x1="335.5337" x2="377.5337" y1="1062.0059" y2="1062.0059"/><line style="stroke:#181818;stroke-width:1;" x1="377.5337" x2="377.5337" y1="1062.0059" y2="1075.0059"/><line style="stroke:#181818;stroke-width:1;" x1="336.5337" x2="377.5337" y1="1075.0059" y2="1075.0059"/><polygon fill="#181818" points="346.5337,1071.0059,336.5337,1075.0059,346.5337,1079.0059,342.5337,1075.0059" style="stroke:#181818;stroke-width:1;"/><text fill="#000000" font-family="sans-serif" font-size="11" lengthAdjust="spacing" textLength="122.7832" x="342.5337" y="1057.6855">parseTrainFile(filepath)</text></g><path d="M283.7451,1090.0059 L472.7871,1090.0059 L472.7871,1094.9609 L462.7871,1104.9609 L283.7451,1104.9609 L283.7451,1090.0059" fill="#EEEEEE" style="stroke:#000000;stroke-width:1.5;"/><rect fill="none" height="695.1465" style="stroke:#000000;stroke-width:1.5;" width="1113.4102" x="283.7451" y="1090.0059"/><text fill="#000000" font-family="sans-serif" font-size="11" font-weight="bold" lengthAdjust="spacing" textLength="144.042" x="298.7451" y="1101.6406">Read lines from trains.txt</text><g class="message" data-participant-1="IH" data-participant-2="IH"><line style="stroke:#181818;stroke-width:1;" x1="335.5337" x2="377.5337" y1="1123.916" y2="1123.916"/><line style="stroke:#181818;stroke-width:1;" x1="377.5337" x2="377.5337" y1="1123.916" y2="1136.916"/><line style="stroke:#181818;stroke-width:1;" x1="336.5337" x2="377.5337" y1="1136.916" y2="1136.916"/><polygon fill="#181818" points="346.5337,1132.916,336.5337,1136.916,346.5337,1140.916,342.5337,1136.916" style="stroke:#181818;stroke-width:1;"/><text fill="#000000" font-family="sans-serif" font-size="11" lengthAdjust="spacing" textLength="345.8447" x="342.5337" y="1119.5957">read line "TrainAB 80 0.05 356.0 30.0 CityA CityB 14h10 00h10"</text></g><g class="message" data-participant-1="IH" data-participant-2="IH"><line style="stroke:#181818;stroke-width:1;" x1="335.5337" x2="377.5337" y1="1163.8711" y2="1163.8711"/><line style="stroke:#181818;stroke-width:1;" x1="377.5337" x2="377.5337" y1="1163.8711" y2="1176.8711"/><line style="stroke:#181818;stroke-width:1;" x1="336.5337" x2="377.5337" y1="1176.8711" y2="1176.8711"/><polygon fill="#181818" points="346.5337,1172.8711,336.5337,1176.8711,346.5337,1180.8711,342.5337,1176.8711" style="stroke:#181818;stroke-width:1;"/><text fill="#000000" font-family="sans-serif" font-size="11" lengthAdjust="spacing" textLength="259.1821" x="342.5337" y="1159.5508">parse: name=TrainAB, weight=80, friction=0.05</text></g><g class="message" data-participant-1="IH" data-participant-2="IH"><line style="stroke:#181818;stroke-width:1;" x1="335.5337" x2="377.5337" y1="1203.8262" y2="1203.8262"/><line style="stroke:#181818;stroke-width:1;" x1="377.5337" x2="377.5337" y1="1203.8262" y2="1216.8262"/><line style="stroke:#181818;stroke-width:1;" x1="336.5337" x2="377.5337" y1="1216.8262" y2="1216.8262"/><polygon fill="#181818" points="346.5337,1212.8262,336.5337,1216.8262,346.5337,1220.8262,342.5337,1216.8262" style="stroke:#181818;stroke-width:1;"/><text fill="#000000" font-family="sans-serif" font-size="11" lengthAdjust="spacing" textLength="230.8389" x="342.5337" y="1199.5059">parse: accelForce=356.0, brakeForce=30.0</text></g><g class="message" data-participant-1="IH" data-participant-2="IH"><line style="stroke:#181818;stroke-width:1;" x1="335.5337" x2="377.5337" y1="1243.7813" y2="1243.7813"/><line style="stroke:#181818;stroke-width:1;" x1="377.5337" x2="377.5337" y1="1243.7813" y2="1256.7813"/><line style="stroke:#181818;stroke-width:1;" x1="336.5337" x2="377.5337" y1="1256.7813" y2="1256.7813"/><polygon fill="#181818" points="346.5337,1252.7813,336.5337,1256.7813,346.5337,1260.7813,342.5337,1256.7813" style="stroke:#181818;stroke-width:1;"/><text fill="#000000" font-family="sans-serif" font-size="11" lengthAdjust="spacing" textLength="201.1904" x="342.5337" y="1239.4609">parse: departure=CityA, arrival=CityB</text></g><g class="message" data-participant-1="IH" data-participant-2="IH"><line style="stroke:#181818;stroke-width:1;" x1="335.5337" x2="377.5337" y1="1283.7363" y2="1283.7363"/><line style="stroke:#181818;stroke-width:1;" x1="377.5337" x2="377.5337" y1="1283.7363" y2="1296.7363"/><line style="stroke:#181818;stroke-width:1;" x1="336.5337" x2="377.5337" y1="1296.7363" y2="1296.7363"/><polygon fill="#181818" points="346.5337,1292.7363,336.5337,1296.7363,346.5337,1300.7363,342.5337,1296.7363" style="stroke:#181818;stroke-width:1;"/><text fill="#000000" font-family="sans-serif" font-size="11" lengthAdjust="spacing" textLength="215.9287" x="342.5337" y="1279.416">parseTime("14h10") &#8594; 51000.0 seconds</text></g><g class="message" data-participant-1="IH" data-participant-2="IH"><line style="stroke:#181818;stroke-width:1;" x1="335.5337" x2="377.5337" y1="1323.6914" y2="1323.6914"/><line style="stroke:#181818;stroke-width:1;" x1="377.5337" x2="377.5337" y1="1323.6914" y2="1336.6914"/><line style="stroke:#181818;stroke-width:1;" x1="336.5337" x2="377.5337" y1="1336.6914" y2="1336.6914"/><polygon fill="#181818" points="346.5337,1332.6914,336.5337,1336.6914,346.5337,1340.6914,342.5337,1336.6914" style="stroke:#181818;stroke-width:1;"/><text fill="#000000" font-family="sans-serif" font-size="11" lengthAdjust="spacing" textLength="284.7378" x="342.5337" y="1319.3711">parseTime("00h10") &#8594; 600.0 seconds (stop duration)</text></g><g class="message" data-participant-1="IH" data-participant-2="TF"><polygon fill="#181818" points="772.4707,1359.6465,782.4707,1363.6465,772.4707,1367.6465,776.4707,1363.6465" style="stroke:#181818;stroke-width:1;"/><line style="stroke:#181818;stroke-width:1;" x1="335.5337" x2="778.4707" y1="1363.6465" y2="1363.6465"/><text fill="#000000" font-family="sans-serif" font-size="11" lengthAdjust="spacing" textLength="414.7129" x="352.6458" y="1359.3262">createTrain("TrainAB", 80, 0.05, 356.0, 30.0, "CityA", "CityB", 51000.0, 600.0)</text></g><path d="M734.3391,1378.6465 L911.7043,1378.6465 L911.7043,1383.6016 L901.7043,1393.6016 L734.3391,1393.6016 L734.3391,1378.6465" fill="#EEEEEE" style="stroke:#000000;stroke-width:1.5;"/><rect fill="none" height="334.5957" style="stroke:#000000;stroke-width:1.5;" width="186.9788" x="734.3391" y="1378.6465"/><text fill="#000000" font-family="sans-serif" font-size="11" font-weight="bold" lengthAdjust="spacing" textLength="132.3652" x="749.3391" y="1390.2813">TrainFactory Validation</text><g class="message" data-participant-1="TF" data-participant-2="TF"><line style="stroke:#181818;stroke-width:1;" x1="784.4707" x2="826.4707" y1="1412.5566" y2="1412.5566"/><line style="stroke:#181818;stroke-width:1;" x1="826.4707" x2="826.4707" y1="1412.5566" y2="1425.5566"/><line style="stroke:#181818;stroke-width:1;" x1="785.4707" x2="826.4707" y1="1425.5566" y2="1425.5566"/><polygon fill="#181818" points="795.4707,1421.5566,785.4707,1425.5566,795.4707,1429.5566,791.4707,1425.5566" style="stroke:#181818;stroke-width:1;"/><text fill="#000000" font-family="sans-serif" font-size="11" lengthAdjust="spacing" textLength="103.6675" x="791.4707" y="1408.2363">name not empty? &#10003;</text></g><g class="message" data-participant-1="TF" data-participant-2="TF"><line style="stroke:#181818;stroke-width:1;" x1="784.4707" x2="826.4707" y1="1452.5117" y2="1452.5117"/><line style="stroke:#181818;stroke-width:1;" x1="826.4707" x2="826.4707" y1="1452.5117" y2="1465.5117"/><line style="stroke:#181818;stroke-width:1;" x1="785.4707" x2="826.4707" y1="1465.5117" y2="1465.5117"/><polygon fill="#181818" points="795.4707,1461.5117,785.4707,1465.5117,795.4707,1469.5117,791.4707,1465.5117" style="stroke:#181818;stroke-width:1;"/><text fill="#000000" font-family="sans-serif" font-size="11" lengthAdjust="spacing" textLength="74.771" x="791.4707" y="1448.1914">weight &gt; 0? &#10003;</text></g><g class="message" data-participant-1="TF" data-participant-2="TF"><line style="stroke:#181818;stroke-width:1;" x1="784.4707" x2="826.4707" y1="1492.4668" y2="1492.4668"/><line style="stroke:#181818;stroke-width:1;" x1="826.4707" x2="826.4707" y1="1492.4668" y2="1505.4668"/><line style="stroke:#181818;stroke-width:1;" x1="785.4707" x2="826.4707" y1="1505.4668" y2="1505.4668"/><polygon fill="#181818" points="795.4707,1501.4668,785.4707,1505.4668,795.4707,1509.4668,791.4707,1505.4668" style="stroke:#181818;stroke-width:1;"/><text fill="#000000" font-family="sans-serif" font-size="11" lengthAdjust="spacing" textLength="86.1685" x="791.4707" y="1488.1465">friction &gt;= 0? &#10003;</text></g><g class="message" data-participant-1="TF" data-participant-2="TF"><line style="stroke:#181818;stroke-width:1;" x1="784.4707" x2="826.4707" y1="1532.4219" y2="1532.4219"/><line style="stroke:#181818;stroke-width:1;" x1="826.4707" x2="826.4707" y1="1532.4219" y2="1545.4219"/><line style="stroke:#181818;stroke-width:1;" x1="785.4707" x2="826.4707" y1="1545.4219" y2="1545.4219"/><polygon fill="#181818" points="795.4707,1541.4219,785.4707,1545.4219,795.4707,1549.4219,791.4707,1545.4219" style="stroke:#181818;stroke-width:1;"/><text fill="#000000" font-family="sans-serif" font-size="11" lengthAdjust="spacing" textLength="94.7568" x="791.4707" y="1528.1016">accelForce &gt; 0? &#10003;</text></g><g class="message" data-participant-1="TF" data-participant-2="TF"><line style="stroke:#181818;stroke-width:1;" x1="784.4707" x2="826.4707" y1="1572.377" y2="1572.377"/><line style="stroke:#181818;stroke-width:1;" x1="826.4707" x2="826.4707" y1="1572.377" y2="1585.377"/><line style="stroke:#181818;stroke-width:1;" x1="785.4707" x2="826.4707" y1="1585.377" y2="1585.377"/><polygon fill="#181818" points="795.4707,1581.377,785.4707,1585.377,795.4707,1589.377,791.4707,1585.377" style="stroke:#181818;stroke-width:1;"/><text fill="#000000" font-family="sans-serif" font-size="11" lengthAdjust="spacing" textLength="98.1621" x="791.4707" y="1568.0566">brakeForce &gt; 0? &#10003;</text></g><g class="message" data-participant-1="TF" data-participant-2="TF"><line style="stroke:#181818;stroke-width:1;" x1="784.4707" x2="826.4707" y1="1612.332" y2="1612.332"/><line style="stroke:#181818;stroke-width:1;" x1="826.4707" x2="826.4707" y1="1612.332" y2="1625.332"/><line style="stroke:#181818;stroke-width:1;" x1="785.4707" x2="826.4707" y1="1625.332" y2="1625.332"/><polygon fill="#181818" points="795.4707,1621.332,785.4707,1625.332,795.4707,1629.332,791.4707,1625.332" style="stroke:#181818;stroke-width:1;"/><text fill="#000000" font-family="sans-serif" font-size="11" lengthAdjust="spacing" textLength="117.5571" x="791.4707" y="1608.0117">departure &#8800; arrival? &#10003;</text></g><g class="message" data-participant-1="TF" data-participant-2="TF"><line style="stroke:#181818;stroke-width:1;" x1="784.4707" x2="826.4707" y1="1652.2871" y2="1652.2871"/><line style="stroke:#181818;stroke-width:1;" x1="826.4707" x2="826.4707" y1="1652.2871" y2="1665.2871"/><line style="stroke:#181818;stroke-width:1;" x1="785.4707" x2="826.4707" y1="1665.2871" y2="1665.2871"/><polygon fill="#181818" points="795.4707,1661.2871,785.4707,1665.2871,795.4707,1669.2871,791.4707,1665.2871" style="stroke:#181818;stroke-width:1;"/><text fill="#000000" font-family="sans-serif" font-size="11" lengthAdjust="spacing" textLength="117.8472" x="791.4707" y="1647.9668">departureTime &#8805; 0? &#10003;</text></g><g class="message" data-participant-1="TF" data-participant-2="TF"><line style="stroke:#181818;stroke-width:1;" x1="784.4707" x2="826.4707" y1="1692.2422" y2="1692.2422"/><line style="stroke:#181818;stroke-width:1;" x1="826.4707" x2="826.4707" y1="1692.2422" y2="1705.2422"/><line style="stroke:#181818;stroke-width:1;" x1="785.4707" x2="826.4707" y1="1705.2422" y2="1705.2422"/><polygon fill="#181818" points="795.4707,1701.2422,785.4707,1705.2422,795.4707,1709.2422,791.4707,1705.2422" style="stroke:#181818;stroke-width:1;"/><text fill="#000000" font-family="sans-serif" font-size="11" lengthAdjust="spacing" textLength="109.1138" x="791.4707" y="1687.9219">stopDuration &#8805; 0? &#10003;</text></g><g class="message" data-participant-1="TF" data-participant-2="T"><polygon fill="#181818" points="1333.6177,1735.1973,1343.6177,1739.1973,1333.6177,1743.1973,1337.6177,1739.1973" style="stroke:#181818;stroke-width:1;"/><line style="stroke:#181818;stroke-width:1;" x1="784.4707" x2="1339.6177" y1="1739.1973" y2="1739.1973"/><text fill="#000000" font-family="sans-serif" font-size="11" lengthAdjust="spacing" textLength="537.147" x="796.4707" y="1734.877">make_unique&lt;Train&gt;(nextId++, name, weight, friction, accelForce, brakeForce, dep, arr, time, stop)</text></g><rect fill="#E2E2F0" height="26.9551" rx="2.5" ry="2.5" style="stroke:#181818;stroke-width:0.5;" width="41.5376" x="1345.6177" y="1720.2422"/><text fill="#000000" font-family="sans-serif" font-size="11" lengthAdjust="spacing" textLength="27.5376" x="1352.6177" y="1737.877">Train</text><g class="message" data-participant-1="TF" data-participant-2="IH"><polygon fill="#181818" points="346.5337,1773.1523,336.5337,1777.1523,346.5337,1781.1523,342.5337,1777.1523" style="stroke:#181818;stroke-width:1;"/><line style="stroke:#181818;stroke-width:1;stroke-dasharray:2,2;" x1="340.5337" x2="783.4707" y1="1777.1523" y2="1777.1523"/><text fill="#000000" font-family="sans-serif" font-size="11" lengthAdjust="spacing" textLength="102.7759" x="508.6143" y="1772.832">unique_ptr&lt;Train&gt;</text></g><g class="message" data-participant-1="IH" data-participant-2="Main"><polygon fill="#181818" points="91.104,1807.1074,81.104,1811.1074,91.104,1815.1074,87.104,1811.1074" style="stroke:#181818;stroke-width:1;"/><line style="stroke:#181818;stroke-width:1;stroke-dasharray:2,2;" x1="85.104" x2="334.5337" y1="1811.1074" y2="1811.1074"/><text fill="#000000" font-family="sans-serif" font-size="11" lengthAdjust="spacing" textLength="220.3867" x="97.6255" y="1806.7871">SimulationData { network, trains, events }</text></g><path d="M85,1824.1074 L85,1872.1074 L281,1872.1074 L281,1834.1074 L271,1824.1074 L85,1824.1074" fill="#FEFFDD" style="stroke:#181818;stroke-width:0.5;"/><path d="M271,1824.1074 L271,1834.1074 L281,1834.1074 L271,1824.1074" fill="#FEFFDD" style="stroke:#181818;stroke-width:0.5;"/><text fill="#000000" font-family="sans-serif" font-size="11" lengthAdjust="spacing" textLength="164.8657" x="91" y="1839.7422">GUI: network &amp; trains stored in</text><text fill="#000000" font-family="sans-serif" font-size="11" lengthAdjust="spacing" textLength="175.6885" x="91" y="1852.6973">MainWindow members, validated</text><text fill="#000000" font-family="sans-serif" font-size="11" lengthAdjust="spacing" textLength="142.8926" x="91" y="1865.6523">only when "Run" is clicked.</text><!--SRC=[dLPDSzis4BtpL-peq4eseqfsbBgUqXqxjXhF94uQkyqn0nCh2MCIO05GZjlfJ4-TwRNjiOTU-iVyIxe0I8gAHJbJ7sI9s7txyFQ3Qsw4B9XcEN2SiJApKoNjfVW9OJoEJ7De5eohMo7dC6EPmVO9_bYYJF4L6iFcU9o9kOGKfKKTHLRO3E5S5gM5DqmR1t3_wrym5VJufMBSFRYi4A3__EKvxCAttvyFeeZGhKX5mQI5Niw4X2_W5Vrx9oGnwG4p_kUwdO_qWacUeVOcvo_M3TuoaLsWlLNwnf_JztM3AqsWKvPQfU-ynTLqWq4uMJyuMzAb_S7PCefOPi5Tfs1s4G7zERBmv8WOmI5aTFLJPbc_9mEPeVrWUp7qh4Ct_jSWGbBQgU51e4y9GgsHUsyIRl0GbmWPhExdDExFwCDvnr05YW4TJnESfR88MimN5jJCYGNLtyxEYPAbySbo34xhs5KMTtOQqmSn1q0928-3clvXOyyqGb5UPo85Ondf1pdQXU8cXfHb6VB6aZAD1TA7jDaTND-ryW-t2vIDOMbGUrKCk0iRM0e6hyaLk62PcW-z9I7v2tV8jk9QYqOPa3oAaWIgwuMwhGivIIBo_Z_IHtEjoWBU8gDa2ac4PrhbqAe5px65hcjJw5qeZl1SsBlZNikA8fCPuzmTztlXd29z0ix98pWdst5SImK-0Gt6a-48zYQZuMWZy7Cb9QPMA5dJfBeFSMBl6mVdJHNgshLE-edWGWSWbdba0yZds1XuyFlV_WYiN4twRzMJu_MQwBpW8VZ6XjuRPWpAEUhF3PmAawfyfZGr_6Yu1_kZ75QW7rV5ToL5uA_rEwKvTGSHw4JRw7zQQXRqeZYz030-6956D7rJ9RbfkPqjgNcXOjtlYXCxsd65Kkc_jLuQ6QXDqXlVFXObex7j51Z3qqdUBe9Frk4Xt2CIKA1AWhqlEoHOCLT5A0_ACSSBbkDUY1hA3VhQrQx1UUwkvhjpq2tbGwfEnN5S4MbKRCfvDJ_yR5cV7lsldim4PXme7pcpWqtZPDD8wfWTgnV7bbRrUCSdS30YugC9x4-UaO3xJiMr1dww69F5Y3utP-CG96cPL70ntA9hqEI0D9XfuLioSG4wd5cQOZPLEiN4CuZXMhCRh9wGOuSVlGteXLjgJ3pRc5ubMYnPbdINt9N8QOhv2rLLCncFjfLDooi84BoUjNsWRwmgW5SrsIwPgobXf2Iv3SdhrvfJLJXvd2enLBVUtrWrSKqn3b6hfWnfRwydy0FB1FSKcfb7yMiMBaLkjW7cXRtx1kx__dEJMSWT7C6eqwJEAHmbMwnMMTqAjahrLhCcrt3_-pzreX-tTfaZZt-t8BlSrUFaOrFVhotxqFyvCNvVIa5hwjS-0KTzYH_iET_TZRtCTGUioZzkoT4kxzXHzOKRWnNEqz4PD37hCWpHtXTMLn73A755HYP-UJc4Iv6NcR-7soNXvzMY4QP1lN30Bz7wQzGlpYuahNQ7jHTyLhavIcxLgsnQIrUE-JLgmbs6ogjsDILfFNCB6Iq39Ut6ma1AwzqDyc7Kl63_0m00]--></g></svg>