<svg xmlns="http://www.w3.org/2000/svg" xmlns:xlink="http://www.w3.org/1999/xlink" contentStyleType="text/css" data-diagram-type="SEQUENCE" height="1306px" preserveAspectRatio="none" style="width:768px;height:1306px;background:#FFFFFF;" version="1.1" viewBox="0 0 768 1306" width="768px" zoomAndPan="magnify"><title>Dijkstra Pathfinding &#8212; Shortest Route Discovery</title><defs/><g><text fill="#000000" font-family="sans-serif" font-size="14" font-weight="bold" lengthAdjust="spacing" textLength="350.5605" x="205.1396" y="28.5352">Dijkstra Pathfinding &#8212; Shortest Route Discovery</text><rect fill="none" height="483.3262" style="stroke:#000000;stroke-width:1.5;" width="460.8145" x="291.0254" y="501.7695"/><rect fill="none" height="414.416" style="stroke:#000000;stroke-width:1.5;" width="440.8145" x="301.0254" y="563.6797"/><rect fill="none" height="289.5957" style="stroke:#000000;stroke-width:1.5;" width="420.8145" x="311.0254" y="681.5"/><rect fill="none" height="134.8203" style="stroke:#000000;stroke-width:1.5;" width="237.7559" x="321.0254" y="829.2754"/><rect fill="none" height="217.6406" style="stroke:#000000;stroke-width:1.5;" width="557.802" x="103" y="1040.0508"/><g><title>Simulation</title><rect fill="#000000" fill-opacity="0.00000" height="1204.248" width="8" x="144.166" y="70.4434"/><line style="stroke:#181818;stroke-width:0.5;stroke-dasharray:5,5;" x1="148" x2="148" y1="70.4434" y2="1274.6914"/></g><g><title>DijkstraPathfinding</title><rect fill="#000000" fill-opacity="0.00000" height="1204.248" width="8" x="385.2388" y="70.4434"/><line style="stroke:#181818;stroke-width:0.5;stroke-dasharray:5,5;" x1="389.0254" x2="389.0254" y1="70.4434" y2="1274.6914"/></g><g><title>RailNetwork</title><rect fill="#000000" fill-opacity="0.00000" height="1204.248" width="8" x="607.8413" y="70.4434"/><line style="stroke:#181818;stroke-width:0.5;stroke-dasharray:5,5;" x1="610.8806" x2="610.8806" y1="70.4434" y2="1274.6914"/></g><g><title>Node</title><rect fill="#000000" fill-opacity="0.00000" height="1204.248" width="8" x="677.7695" y="70.4434"/><line style="stroke:#181818;stroke-width:0.5;stroke-dasharray:5,5;" x1="680.802" x2="680.802" y1="70.4434" y2="1274.6914"/></g><g class="participant participant-head" data-participant="Sim"><rect fill="#E2E2F0" height="26.9551" rx="2.5" ry="2.5" style="stroke:#181818;stroke-width:0.5;" width="70.332" x="113" y="42.4883"/><text fill="#000000" font-family="sans-serif" font-size="11" lengthAdjust="spacing" textLength="56.332" x="120" y="60.123">Simulation</text></g><g class="participant participant-tail" data-participant="Sim"><rect fill="#E2E2F0" height="26.9551" rx="2.5" ry="2.5" style="stroke:#181818;stroke-width:0.5;" width="70.332" x="113" y="1273.6914"/><text fill="#000000" font-family="sans-serif" font-size="11" lengthAdjust="spacing" textLength="56.332" x="120" y="1291.3262">Simulation</text></g><g class="participant participant-head" data-participant="Dijk"><rect fill="#E2E2F0" height="26.9551" rx="2.5" ry="2.5" style="stroke:#181818;stroke-width:0.5;" width="116.4268" x="331.0254" y="42.4883"/><text fill="#000000" font-family="sans-serif" font-size="11" lengthAdjust="spacing" textLength="102.4268" x="338.0254" y="60.123">DijkstraPathfinding</text></g><g class="participant participant-tail" data-participant="Dijk"><rect fill="#E2E2F0" height="26.9551" rx="2.5" ry="2.5" style="stroke:#181818;stroke-width:0.5;" width="116.4268" x="331.0254" y="1273.6914"/><text fill="#000000" font-family="sans-serif" font-size="11" lengthAdjust="spacing" textLength="102.4268" x="338.0254" y="1291.3262">DijkstraPathfinding</text></g><g class="participant participant-head" data-participant="Net"><rect fill="#E2E2F0" height="26.9551" rx="2.5" ry="2.5" style="stroke:#181818;stroke-width:0.5;" width="77.9214" x="572.8806" y="42.4883"/><text fill="#000000" font-family="sans-serif" font-size="11" lengthAdjust="spacing" textLength="63.9214" x="579.8806" y="60.123">RailNetwork</text></g><g class="participant participant-tail" data-participant="Net"><rect fill="#E2E2F0" height="26.9551" rx="2.5" ry="2.5" style="stroke:#181818;stroke-width:0.5;" width="77.9214" x="572.8806" y="1273.6914"/><text fill="#000000" font-family="sans-serif" font-size="11" lengthAdjust="spacing" textLength="63.9214" x="579.8806" y="1291.3262">RailNetwork</text></g><g class="participant participant-head" data-participant="N"><rect fill="#E2E2F0" height="26.9551" rx="2.5" ry="2.5" style="stroke:#181818;stroke-width:0.5;" width="41.9351" x="660.802" y="42.4883"/><text fill="#000000" font-family="sans-serif" font-size="11" lengthAdjust="spacing" textLength="27.9351" x="667.802" y="60.123">Node</text></g><g class="participant participant-tail" data-participant="N"><rect fill="#E2E2F0" height="26.9551" rx="2.5" ry="2.5" style="stroke:#181818;stroke-width:0.5;" width="41.9351" x="660.802" y="1273.6914"/><text fill="#000000" font-family="sans-serif" font-size="11" lengthAdjust="spacing" textLength="27.9351" x="667.802" y="1291.3262">Node</text></g><g class="message" data-participant-1="Sim" data-participant-2="Dijk"><polygon fill="#181818" points="377.2388,95.3984,387.2388,99.3984,377.2388,103.3984,381.2388,99.3984" style="stroke:#181818;stroke-width:1;"/><line style="stroke:#181818;stroke-width:1;" x1="148.166" x2="383.2388" y1="99.3984" y2="99.3984"/><text fill="#000000" font-family="sans-serif" font-size="11" lengthAdjust="spacing" textLength="217.0728" x="160.166" y="95.0781">findPath("CityA", "CityB", network, mode)</text></g><path d="M5,112.3984 L5,160.3984 L292,160.3984 L292,122.3984 L282,112.3984 L5,112.3984" fill="#FEFFDD" style="stroke:#181818;stroke-width:0.5;"/><path d="M282,112.3984 L282,122.3984 L292,122.3984 L282,112.3984" fill="#FEFFDD" style="stroke:#181818;stroke-width:0.5;"/><text fill="#000000" font-family="sans-serif" font-size="11" font-weight="bold" lengthAdjust="spacing" textLength="94.542" x="11" y="128.0332">PathWeightMode</text><text fill="#000000" font-family="sans-serif" font-size="11" lengthAdjust="spacing" textLength="146.9209" x="109.0225" y="128.0332">(set via --time-weight flag)</text><text fill="#000000" font-family="sans-serif" font-size="11" lengthAdjust="spacing" textLength="266.8145" x="11" y="140.9883">&#8226; Distance (default) &#8212; edge weight = distance km</text><text fill="#000000" font-family="sans-serif" font-size="11" lengthAdjust="spacing" textLength="250.4863" x="11" y="153.9434">&#8226; Time &#8212; edge weight = distance / speedLimit</text><rect fill="#EEEEEE" height="3" style="stroke:#EEEEEE;stroke-width:1;" width="761.8398" x="0" y="185.7412"/><line style="stroke:#000000;stroke-width:1;" x1="0" x2="761.8398" y1="185.7412" y2="185.7412"/><line style="stroke:#000000;stroke-width:1;" x1="0" x2="761.8398" y1="188.7412" y2="188.7412"/><rect fill="#EEEEEE" height="20.9551" style="stroke:#000000;stroke-width:2;" width="74.9727" x="343.4336" y="176.2637"/><text fill="#000000" font-family="sans-serif" font-size="11" font-weight="bold" lengthAdjust="spacing" textLength="57.3472" x="349.4336" y="190.8984">Validation</text><g class="message" data-participant-1="Dijk" data-participant-2="Net"><polygon fill="#181818" points="599.8413,222.1738,609.8413,226.1738,599.8413,230.1738,603.8413,226.1738" style="stroke:#181818;stroke-width:1;"/><line style="stroke:#181818;stroke-width:1;" x1="389.2388" x2="605.8413" y1="226.1738" y2="226.1738"/><text fill="#000000" font-family="sans-serif" font-size="11" lengthAdjust="spacing" textLength="92.5225" x="454.2788" y="221.8535">findNode("CityA")</text></g><g class="message" data-participant-1="Net" data-participant-2="Dijk"><polygon fill="#181818" points="400.2388,249.1289,390.2388,253.1289,400.2388,257.1289,396.2388,253.1289" style="stroke:#181818;stroke-width:1;"/><line style="stroke:#181818;stroke-width:1;stroke-dasharray:2,2;" x1="394.2388" x2="610.8413" y1="253.1289" y2="253.1289"/><text fill="#000000" font-family="sans-serif" font-size="11" lengthAdjust="spacing" textLength="114.4097" x="443.3352" y="248.8086">shared_ptr&lt;Node&gt; &#10003;</text></g><g class="message" data-participant-1="Dijk" data-participant-2="Net"><polygon fill="#181818" points="599.8413,276.084,609.8413,280.084,599.8413,284.084,603.8413,280.084" style="stroke:#181818;stroke-width:1;"/><line style="stroke:#181818;stroke-width:1;" x1="389.2388" x2="605.8413" y1="280.084" y2="280.084"/><text fill="#000000" font-family="sans-serif" font-size="11" lengthAdjust="spacing" textLength="91.2603" x="454.9099" y="275.7637">findNode("CityB")</text></g><g class="message" data-participant-1="Net" data-participant-2="Dijk"><polygon fill="#181818" points="400.2388,303.0391,390.2388,307.0391,400.2388,311.0391,396.2388,307.0391" style="stroke:#181818;stroke-width:1;"/><line style="stroke:#181818;stroke-width:1;stroke-dasharray:2,2;" x1="394.2388" x2="610.8413" y1="307.0391" y2="307.0391"/><text fill="#000000" font-family="sans-serif" font-size="11" lengthAdjust="spacing" textLength="114.4097" x="443.3352" y="302.7188">shared_ptr&lt;Node&gt; &#10003;</text></g><path d="M313,320.0391 L313,355.0391 L464,355.0391 L464,330.0391 L454,320.0391 L313,320.0391" fill="#FEFFDD" style="stroke:#181818;stroke-width:0.5;"/><path d="M454,320.0391 L454,330.0391 L464,330.0391 L454,320.0391" fill="#FEFFDD" style="stroke:#181818;stroke-width:0.5;"/><text fill="#000000" font-family="sans-serif" font-size="11" lengthAdjust="spacing" textLength="82.9136" x="319" y="335.6738">If start == end:</text><text fill="#000000" font-family="sans-serif" font-size="11" lengthAdjust="spacing" textLength="130.9688" x="319" y="348.6289">return { findNode(start) }</text><rect fill="#EEEEEE" height="3" style="stroke:#EEEEEE;stroke-width:1;" width="761.8398" x="0" y="380.4268"/><line style="stroke:#000000;stroke-width:1;" x1="0" x2="761.8398" y1="380.4268" y2="380.4268"/><line style="stroke:#000000;stroke-width:1;" x1="0" x2="761.8398" y1="383.4268" y2="383.4268"/><rect fill="#EEEEEE" height="20.9551" style="stroke:#000000;stroke-width:2;" width="123.2051" x="319.3174" y="370.9492"/><text fill="#000000" font-family="sans-serif" font-size="11" font-weight="bold" lengthAdjust="spacing" textLength="105.5796" x="325.3174" y="385.584">Dijkstra Algorithm</text><g class="message" data-participant-1="Dijk" data-participant-2="Dijk"><line style="stroke:#181818;stroke-width:1;" x1="389.2388" x2="431.2388" y1="433.8145" y2="433.8145"/><line style="stroke:#181818;stroke-width:1;" x1="431.2388" x2="431.2388" y1="433.8145" y2="446.8145"/><line style="stroke:#181818;stroke-width:1;" x1="390.2388" x2="431.2388" y1="446.8145" y2="446.8145"/><polygon fill="#181818" points="400.2388,442.8145,390.2388,446.8145,400.2388,450.8145,396.2388,446.8145" style="stroke:#181818;stroke-width:1;"/><text fill="#000000" font-family="sans-serif" font-size="11" lengthAdjust="spacing" textLength="144.665" x="396.2388" y="416.5391">initialise dist["CityA"] = 0.0</text><text fill="#000000" font-family="sans-serif" font-size="11" lengthAdjust="spacing" textLength="75.8936" x="430.6245" y="429.4941">all others = &#8734;</text></g><g class="message" data-participant-1="Dijk" data-participant-2="Dijk"><line style="stroke:#181818;stroke-width:1;" x1="389.2388" x2="431.2388" y1="473.7695" y2="473.7695"/><line style="stroke:#181818;stroke-width:1;" x1="431.2388" x2="431.2388" y1="473.7695" y2="486.7695"/><line style="stroke:#181818;stroke-width:1;" x1="390.2388" x2="431.2388" y1="486.7695" y2="486.7695"/><polygon fill="#181818" points="400.2388,482.7695,390.2388,486.7695,400.2388,490.7695,396.2388,486.7695" style="stroke:#181818;stroke-width:1;"/><text fill="#000000" font-family="sans-serif" font-size="11" lengthAdjust="spacing" textLength="190.6792" x="396.2388" y="469.4492">push (0.0, "CityA") to priority queue</text></g><path d="M291.0254,501.7695 L360.9419,501.7695 L360.9419,506.7246 L350.9419,516.7246 L291.0254,516.7246 L291.0254,501.7695" fill="#EEEEEE" style="stroke:#000000;stroke-width:1.5;"/><rect fill="none" height="483.3262" style="stroke:#000000;stroke-width:1.5;" width="460.8145" x="291.0254" y="501.7695"/><text fill="#000000" font-family="sans-serif" font-size="11" font-weight="bold" lengthAdjust="spacing" textLength="24.9165" x="306.0254" y="513.4043">loop</text><text fill="#000000" font-family="sans-serif" font-size="11" font-weight="bold" lengthAdjust="spacing" textLength="183.917" x="375.9419" y="514.4043">[while priority queue not empty]</text><g class="message" data-participant-1="Dijk" data-participant-2="Dijk"><line style="stroke:#181818;stroke-width:1;" x1="389.2388" x2="431.2388" y1="535.6797" y2="535.6797"/><line style="stroke:#181818;stroke-width:1;" x1="431.2388" x2="431.2388" y1="535.6797" y2="548.6797"/><line style="stroke:#181818;stroke-width:1;" x1="390.2388" x2="431.2388" y1="548.6797" y2="548.6797"/><polygon fill="#181818" points="400.2388,544.6797,390.2388,548.6797,400.2388,552.6797,396.2388,548.6797" style="stroke:#181818;stroke-width:1;"/><text fill="#000000" font-family="sans-serif" font-size="11" lengthAdjust="spacing" textLength="98.8442" x="396.2388" y="531.3594">pop (cost, current)</text></g><path d="M301.0254,563.6797 L360.5273,563.6797 L360.5273,568.6348 L350.5273,578.6348 L301.0254,578.6348 L301.0254,563.6797" fill="#EEEEEE" style="stroke:#000000;stroke-width:1.5;"/><rect fill="none" height="414.416" style="stroke:#000000;stroke-width:1.5;" width="440.8145" x="301.0254" y="563.6797"/><text fill="#000000" font-family="sans-serif" font-size="11" font-weight="bold" lengthAdjust="spacing" textLength="14.502" x="316.0254" y="575.3145">alt</text><text fill="#000000" font-family="sans-serif" font-size="11" font-weight="bold" lengthAdjust="spacing" textLength="118.6152" x="375.5273" y="576.3145">[cost &gt; dist[current]]</text><g class="message" data-participant-1="Dijk" data-participant-2="Dijk"><line style="stroke:#181818;stroke-width:1;" x1="389.2388" x2="431.2388" y1="597.5898" y2="597.5898"/><line style="stroke:#181818;stroke-width:1;" x1="431.2388" x2="431.2388" y1="597.5898" y2="610.5898"/><line style="stroke:#181818;stroke-width:1;" x1="390.2388" x2="431.2388" y1="610.5898" y2="610.5898"/><polygon fill="#181818" points="400.2388,606.5898,390.2388,610.5898,400.2388,614.5898,396.2388,610.5898" style="stroke:#181818;stroke-width:1;"/><text fill="#000000" font-family="sans-serif" font-size="11" lengthAdjust="spacing" textLength="88.6768" x="396.2388" y="593.2695">skip (stale entry)</text></g><line style="stroke:#000000;stroke-width:1;stroke-dasharray:2,2;" x1="301.0254" x2="741.8398" y1="619.5898" y2="619.5898"/><g class="message" data-participant-1="Dijk" data-participant-2="Net"><polygon fill="#181818" points="599.8413,635.5449,609.8413,639.5449,599.8413,643.5449,603.8413,639.5449" style="stroke:#181818;stroke-width:1;"/><line style="stroke:#181818;stroke-width:1;" x1="389.2388" x2="605.8413" y1="639.5449" y2="639.5449"/><text fill="#000000" font-family="sans-serif" font-size="11" lengthAdjust="spacing" textLength="124.5234" x="438.2783" y="635.2246">getNeighbours(current)</text></g><g class="message" data-participant-1="Net" data-participant-2="Dijk"><polygon fill="#181818" points="400.2388,662.5,390.2388,666.5,400.2388,670.5,396.2388,666.5" style="stroke:#181818;stroke-width:1;"/><line style="stroke:#181818;stroke-width:1;stroke-dasharray:2,2;" x1="394.2388" x2="610.8413" y1="666.5" y2="666.5"/><text fill="#000000" font-family="sans-serif" font-size="11" lengthAdjust="spacing" textLength="76.189" x="462.4456" y="662.1797">vector&lt;Edge&gt;</text></g><path d="M311.0254,681.5 L380.9419,681.5 L380.9419,686.4551 L370.9419,696.4551 L311.0254,696.4551 L311.0254,681.5" fill="#EEEEEE" style="stroke:#000000;stroke-width:1.5;"/><rect fill="none" height="289.5957" style="stroke:#000000;stroke-width:1.5;" width="420.8145" x="311.0254" y="681.5"/><text fill="#000000" font-family="sans-serif" font-size="11" font-weight="bold" lengthAdjust="spacing" textLength="24.9165" x="326.0254" y="693.1348">loop</text><text fill="#000000" font-family="sans-serif" font-size="11" font-weight="bold" lengthAdjust="spacing" textLength="85.4165" x="395.9419" y="694.1348">[for each edge]</text><g class="message" data-participant-1="Dijk" data-participant-2="Dijk"><line style="stroke:#181818;stroke-width:1;" x1="389.2388" x2="431.2388" y1="715.4102" y2="715.4102"/><line style="stroke:#181818;stroke-width:1;" x1="431.2388" x2="431.2388" y1="715.4102" y2="728.4102"/><line style="stroke:#181818;stroke-width:1;" x1="390.2388" x2="431.2388" y1="728.4102" y2="728.4102"/><polygon fill="#181818" points="400.2388,724.4102,390.2388,728.4102,400.2388,732.4102,396.2388,728.4102" style="stroke:#181818;stroke-width:1;"/><text fill="#000000" font-family="sans-serif" font-size="11" lengthAdjust="spacing" textLength="184.0781" x="396.2388" y="711.0898">weight = edgeWeight(edge, mode)</text></g><path d="M394,741.4102 L394,776.4102 L721,776.4102 L721,751.4102 L711,741.4102 L394,741.4102" fill="#FEFFDD" style="stroke:#181818;stroke-width:0.5;"/><path d="M711,741.4102 L711,751.4102 L721,751.4102 L711,741.4102" fill="#FEFFDD" style="stroke:#181818;stroke-width:0.5;"/><text fill="#000000" font-family="sans-serif" font-size="11" lengthAdjust="spacing" textLength="211.6211" x="400" y="757.0449">Distance mode: weight = edge.distance</text><text fill="#000000" font-family="sans-serif" font-size="11" lengthAdjust="spacing" textLength="306.8398" x="400" y="770">Time mode:     weight = edge.distance / edge.speedLimit</text><g class="message" data-participant-1="Dijk" data-participant-2="Dijk"><line style="stroke:#181818;stroke-width:1;" x1="389.2388" x2="431.2388" y1="801.2754" y2="801.2754"/><line style="stroke:#181818;stroke-width:1;" x1="431.2388" x2="431.2388" y1="801.2754" y2="814.2754"/><line style="stroke:#181818;stroke-width:1;" x1="390.2388" x2="431.2388" y1="814.2754" y2="814.2754"/><polygon fill="#181818" points="400.2388,810.2754,390.2388,814.2754,400.2388,818.2754,396.2388,814.2754" style="stroke:#181818;stroke-width:1;"/><text fill="#000000" font-family="sans-serif" font-size="11" lengthAdjust="spacing" textLength="175.0762" x="396.2388" y="796.9551">newDist = dist[current] + weight</text></g><path d="M321.0254,829.2754 L380.5273,829.2754 L380.5273,834.2305 L370.5273,844.2305 L321.0254,844.2305 L321.0254,829.2754" fill="#EEEEEE" style="stroke:#000000;stroke-width:1.5;"/><rect fill="none" height="134.8203" style="stroke:#000000;stroke-width:1.5;" width="237.7559" x="321.0254" y="829.2754"/><text fill="#000000" font-family="sans-serif" font-size="11" font-weight="bold" lengthAdjust="spacing" textLength="14.502" x="336.0254" y="840.9102">alt</text><text fill="#000000" font-family="sans-serif" font-size="11" font-weight="bold" lengthAdjust="spacing" textLength="158.2539" x="395.5273" y="841.9102">[newDist &lt; dist[neighbour]]</text><g class="message" data-participant-1="Dijk" data-participant-2="Dijk"><line style="stroke:#181818;stroke-width:1;" x1="389.2388" x2="431.2388" y1="863.1855" y2="863.1855"/><line style="stroke:#181818;stroke-width:1;" x1="431.2388" x2="431.2388" y1="863.1855" y2="876.1855"/><line style="stroke:#181818;stroke-width:1;" x1="390.2388" x2="431.2388" y1="876.1855" y2="876.1855"/><polygon fill="#181818" points="400.2388,872.1855,390.2388,876.1855,400.2388,880.1855,396.2388,876.1855" style="stroke:#181818;stroke-width:1;"/><text fill="#000000" font-family="sans-serif" font-size="11" lengthAdjust="spacing" textLength="140.0835" x="396.2388" y="858.8652">dist[neighbour] = newDist</text></g><g class="message" data-participant-1="Dijk" data-participant-2="Dijk"><line style="stroke:#181818;stroke-width:1;" x1="389.2388" x2="431.2388" y1="903.1406" y2="903.1406"/><line style="stroke:#181818;stroke-width:1;" x1="431.2388" x2="431.2388" y1="903.1406" y2="916.1406"/><line style="stroke:#181818;stroke-width:1;" x1="390.2388" x2="431.2388" y1="916.1406" y2="916.1406"/><polygon fill="#181818" points="400.2388,912.1406,390.2388,916.1406,400.2388,920.1406,396.2388,916.1406" style="stroke:#181818;stroke-width:1;"/><text fill="#000000" font-family="sans-serif" font-size="11" lengthAdjust="spacing" textLength="139.4658" x="396.2388" y="898.8203">prev[neighbour] = current</text></g><g class="message" data-participant-1="Dijk" data-participant-2="Dijk"><line style="stroke:#181818;stroke-width:1;" x1="389.2388" x2="431.2388" y1="943.0957" y2="943.0957"/><line style="stroke:#181818;stroke-width:1;" x1="431.2388" x2="431.2388" y1="943.0957" y2="956.0957"/><line style="stroke:#181818;stroke-width:1;" x1="390.2388" x2="431.2388" y1="956.0957" y2="956.0957"/><polygon fill="#181818" points="400.2388,952.0957,390.2388,956.0957,400.2388,960.0957,396.2388,956.0957" style="stroke:#181818;stroke-width:1;"/><text fill="#000000" font-family="sans-serif" font-size="11" lengthAdjust="spacing" textLength="141.1792" x="396.2388" y="938.7754">push (newDist, neighbour)</text></g><rect fill="#EEEEEE" height="3" style="stroke:#EEEEEE;stroke-width:1;" width="761.8398" x="0" y="1011.5732"/><line style="stroke:#000000;stroke-width:1;" x1="0" x2="761.8398" y1="1011.5732" y2="1011.5732"/><line style="stroke:#000000;stroke-width:1;" x1="0" x2="761.8398" y1="1014.5732" y2="1014.5732"/><rect fill="#EEEEEE" height="20.9551" style="stroke:#000000;stroke-width:2;" width="131.3262" x="315.2568" y="1002.0957"/><text fill="#000000" font-family="sans-serif" font-size="11" font-weight="bold" lengthAdjust="spacing" textLength="113.7007" x="321.2568" y="1016.7305">Path Reconstruction</text><path d="M103,1040.0508 L162.502,1040.0508 L162.502,1045.0059 L152.502,1055.0059 L103,1055.0059 L103,1040.0508" fill="#EEEEEE" style="stroke:#000000;stroke-width:1.5;"/><rect fill="none" height="217.6406" style="stroke:#000000;stroke-width:1.5;" width="557.802" x="103" y="1040.0508"/><text fill="#000000" font-family="sans-serif" font-size="11" font-weight="bold" lengthAdjust="spacing" textLength="14.502" x="118" y="1051.6855">alt</text><text fill="#000000" font-family="sans-serif" font-size="11" font-weight="bold" lengthAdjust="spacing" textLength="134.6963" x="177.502" y="1052.6855">[dist[end] was updated]</text><g class="message" data-participant-1="Dijk" data-participant-2="Dijk"><line style="stroke:#181818;stroke-width:1;" x1="389.2388" x2="431.2388" y1="1073.9609" y2="1073.9609"/><line style="stroke:#181818;stroke-width:1;" x1="431.2388" x2="431.2388" y1="1073.9609" y2="1086.9609"/><line style="stroke:#181818;stroke-width:1;" x1="390.2388" x2="431.2388" y1="1086.9609" y2="1086.9609"/><polygon fill="#181818" points="400.2388,1082.9609,390.2388,1086.9609,400.2388,1090.9609,396.2388,1086.9609" style="stroke:#181818;stroke-width:1;"/><text fill="#000000" font-family="sans-serif" font-size="11" lengthAdjust="spacing" textLength="208.6025" x="396.2388" y="1069.6406">walk prev[] from "CityB" back to "CityA"</text></g><g class="message" data-participant-1="Dijk" data-participant-2="Net"><polygon fill="#181818" points="599.8413,1109.916,609.8413,1113.916,599.8413,1117.916,603.8413,1113.916" style="stroke:#181818;stroke-width:1;"/><line style="stroke:#181818;stroke-width:1;" x1="389.2388" x2="605.8413" y1="1113.916" y2="1113.916"/><text fill="#000000" font-family="sans-serif" font-size="11" lengthAdjust="spacing" textLength="158.5439" x="421.2681" y="1109.5957">findNode(name) for each step</text></g><g class="message" data-participant-1="Net" data-participant-2="Dijk"><polygon fill="#181818" points="400.2388,1136.8711,390.2388,1140.8711,400.2388,1144.8711,396.2388,1140.8711" style="stroke:#181818;stroke-width:1;"/><line style="stroke:#181818;stroke-width:1;stroke-dasharray:2,2;" x1="394.2388" x2="610.8413" y1="1140.8711" y2="1140.8711"/><text fill="#000000" font-family="sans-serif" font-size="11" lengthAdjust="spacing" textLength="102.5234" x="449.2783" y="1136.5508">shared_ptr&lt;Node&gt;</text></g><g class="message" data-participant-1="Dijk" data-participant-2="Dijk"><line style="stroke:#181818;stroke-width:1;" x1="389.2388" x2="431.2388" y1="1167.8262" y2="1167.8262"/><line style="stroke:#181818;stroke-width:1;" x1="431.2388" x2="431.2388" y1="1167.8262" y2="1180.8262"/><line style="stroke:#181818;stroke-width:1;" x1="390.2388" x2="431.2388" y1="1180.8262" y2="1180.8262"/><polygon fill="#181818" points="400.2388,1176.8262,390.2388,1180.8262,400.2388,1184.8262,396.2388,1180.8262" style="stroke:#181818;stroke-width:1;"/><text fill="#000000" font-family="sans-serif" font-size="11" lengthAdjust="spacing" textLength="66.1074" x="396.2388" y="1163.5059">reverse path</text></g><g class="message" data-participant-1="Dijk" data-participant-2="Sim"><polygon fill="#181818" points="159.166,1203.7813,149.166,1207.7813,159.166,1211.7813,155.166,1207.7813" style="stroke:#181818;stroke-width:1;"/><line style="stroke:#181818;stroke-width:1;stroke-dasharray:2,2;" x1="153.166" x2="388.2388" y1="1207.7813" y2="1207.7813"/><text fill="#000000" font-family="sans-serif" font-size="11" lengthAdjust="spacing" textLength="148.6128" x="194.396" y="1203.4609">[CityA, RailNodeA, ..., CityB]</text></g><line style="stroke:#000000;stroke-width:1;stroke-dasharray:2,2;" x1="103" x2="660.802" y1="1216.7813" y2="1216.7813"/><text fill="#000000" font-family="sans-serif" font-size="11" font-weight="bold" lengthAdjust="spacing" textLength="88.4136" x="108" y="1227.416">[no path found]</text><g class="message" data-participant-1="Dijk" data-participant-2="Sim"><polygon fill="#181818" points="159.166,1245.6914,149.166,1249.6914,159.166,1253.6914,155.166,1249.6914" style="stroke:#181818;stroke-width:1;"/><line style="stroke:#181818;stroke-width:1;stroke-dasharray:2,2;" x1="153.166" x2="388.2388" y1="1249.6914" y2="1249.6914"/><text fill="#000000" font-family="sans-serif" font-size="11" lengthAdjust="spacing" textLength="69.4912" x="233.9568" y="1245.3711">empty vector</text></g><!--SRC=[ZLLBRzD04BxlhnZrb8GajDUgYTJoa91eXLe4XnAXhJs9bzYxPdUTA22a7hd34N7Wf-MNCBD-97QZWgKe6yzytpnslebRAfrBApE8SIwBrByqsj-eBmWd9y8rHfV8sAoLNi1SfWxtBVYvG1tX9Jed5tYUgeM62BL7AuHNFaLuhZujdRSItaYVp9MEcMTx_nDk4cCzEW_Nfl3ivoApGhiHWhYzYbGkjOUZ6vKLgVJAw2EG3kXdsrxpxz47HtxVzhoMAhr2lpPs6Jpet7QuCZ6M5Y4e3eocWGLEWOavGE_ecVARywCXXCC57NJ9E8ICq7qXjA5Yk92GAj0p633qFQf5uY_9QJ20daCFAoLXDF8gmz4w666UoaK_OBRtVxWZNb9peLVTJZ_q3UC5GWMOG5mxBRC6-9Oe7tDz2Yv7Z5-hJ7c1EWREMOZ91Dx9LCMXsJ2PY50yDO4QLVM0ErJte2_u_MZN91eJY_77tDipzfl2zjUFHpak_fDZhwVXLhdELtEWQYpLDG4guJIyjEWBg-7hBaxmwSEtTfdDJ9wd2sELJxBzSgjKb5PUKJySXixTLcNFg9F7u-CFMgOf69-WTVHc-_rt5vyNBe4UkLR3GXq3Ro2tYaDkW9HJK3gfCJci4qLIQPiuNS0izvjGMvUTKBt8E3-4gB2M95SEZamzy6kObbbNnbam7k0XBHCHjOdYav_Tb3J8Ekz2oZjSeB_YaRepXNMzLd1-EXUwmiWRU_Q29d7Q-8IQvyO2oYW9KzgO3gJO330xbZBgyR6Mt3uqJ8eD_cQ-cvOsUoK3HdVOnxL67g22fae4FuTHfApmUqzU-npD33vIhCOr9rZ9jRa-U5A5R67vicl0MGdGzTNC3XJUYjHnfuWLrR-0kSLL6rXb-KzWK4GLXJTdHT7lTabqp_pD7nOlBrEuniXead0HrSkAUn5A8hyPh6cB5pcjCemFgMSjqsLPnmpcrcJrEeSx6IrPfPLYnSFnRrQBbXdsTrFiFERYW02w6-rGEfG8hH5Q05JQdfqS-6_e56v3DaC8_s14GiVnU3o4aFHCi5Xfi0AS4YfqV8Wah99AZw6PVm40]--></g></svg>