<svg xmlns="http://www.w3.org/2000/svg" xmlns:xlink="http://www.w3.org/1999/xlink" contentStyleType="text/css" data-diagram-type="STATE" height="999px" preserveAspectRatio="none" style="width:1031px;height:999px;background:#FFFFFF;" version="1.1" viewBox="0 0 1031 999" width="1031px" zoomAndPan="magnify"><title>Train Lifecycle &#8212; State Machine (Mandatory + Bonus)</title><defs/><g><g class="title" data-source-line="7"><text fill="#000000" font-family="sans-serif" font-size="14" font-weight="bold" lengthAdjust="spacing" textLength="384.4941" x="316.2684" y="23.5352">Train Lifecycle &#8212; State Machine (Mandatory + Bonus)</text></g><ellipse cx="450.75" cy="53.4883" fill="#222222" rx="10" ry="10" style="stroke:#222222;stroke-width:1;"/><g id="Waiting"><rect fill="#F1F1F1" height="84.7754" rx="12.5" ry="12.5" style="stroke:#181818;stroke-width:0.5;" width="141.5049" x="380" y="153.4883"/><line style="stroke:#181818;stroke-width:0.5;" x1="380" x2="521.5049" y1="176.4434" y2="176.4434"/><text fill="#000000" font-family="sans-serif" font-size="11" lengthAdjust="spacing" textLength="39.644" x="430.9304" y="169.123">Waiting</text><text fill="#000000" font-family="sans-serif" font-size="11" lengthAdjust="spacing" textLength="117.0415" x="385" y="192.0781">name, weight, friction</text><text fill="#000000" font-family="sans-serif" font-size="11" lengthAdjust="spacing" textLength="121.5049" x="385" y="205.0332">accelForce, brakeForce</text><text fill="#000000" font-family="sans-serif" font-size="11" lengthAdjust="spacing" textLength="103.2861" x="385" y="217.9883">departure &#8594; arrival</text><text fill="#000000" font-family="sans-serif" font-size="11" lengthAdjust="spacing" textLength="69.9209" x="385" y="230.9434">stopDuration</text></g><g id="Running"><rect fill="#F1F1F1" height="97.7305" rx="12.5" ry="12.5" style="stroke:#181818;stroke-width:0.5;" width="186.7671" x="357.36" y="314.2683"/><line style="stroke:#181818;stroke-width:0.5;" x1="357.36" x2="544.1271" y1="337.2234" y2="337.2234"/><text fill="#000000" font-family="sans-serif" font-size="11" lengthAdjust="spacing" textLength="44.3008" x="428.5932" y="329.903">Running</text><text fill="#000000" font-family="sans-serif" font-size="11" lengthAdjust="spacing" textLength="118.2661" x="362.36" y="352.8581">physics loop (1s ticks)</text><text fill="#000000" font-family="sans-serif" font-size="11" lengthAdjust="spacing" textLength="155.6597" x="362.36" y="365.8132">accelerate / brake / maintain</text><text fill="#000000" font-family="sans-serif" font-size="11" lengthAdjust="spacing" textLength="166.7671" x="362.36" y="378.7683">speed capped by segment limit</text><text fill="#000000" font-family="sans-serif" font-size="11" lengthAdjust="spacing" textLength="145.3311" x="362.36" y="391.7234">animation callback invoked</text><text fill="#000000" font-family="sans-serif" font-size="11" lengthAdjust="spacing" textLength="110.2148" x="362.36" y="404.6784">(if --animate or GUI)</text></g><g id="StoppedAtStation"><rect fill="#F1F1F1" height="58.8652" rx="12.5" ry="12.5" style="stroke:#181818;stroke-width:0.5;" width="222.356" x="180.57" y="665.7283"/><line style="stroke:#181818;stroke-width:0.5;" x1="180.57" x2="402.926" y1="688.6834" y2="688.6834"/><text fill="#000000" font-family="sans-serif" font-size="11" lengthAdjust="spacing" textLength="92.3882" x="245.5539" y="681.363">StoppedAtStation</text><text fill="#000000" font-family="sans-serif" font-size="11" lengthAdjust="spacing" textLength="127.3379" x="185.57" y="704.3181">speed = 0, position = 0</text><text fill="#000000" font-family="sans-serif" font-size="11" lengthAdjust="spacing" textLength="202.356" x="185.57" y="717.2732">timer counts down from stopDuration</text></g><g id="Delayed"><rect fill="#F1F1F1" height="58.8652" rx="12.5" ry="12.5" style="stroke:#181818;stroke-width:0.5;" width="175.6328" x="418.93" y="487.9983"/><line style="stroke:#181818;stroke-width:0.5;" x1="418.93" x2="594.5628" y1="510.9534" y2="510.9534"/><text fill="#000000" font-family="sans-serif" font-size="11" lengthAdjust="spacing" textLength="42.4209" x="485.536" y="503.633">Delayed</text><text fill="#000000" font-family="sans-serif" font-size="11" lengthAdjust="spacing" textLength="155.6328" x="423.93" y="526.5881">totalDelay += event.duration</text><text fill="#000000" font-family="sans-serif" font-size="11" lengthAdjust="spacing" textLength="127.7622" x="423.93" y="539.5432">clock advances by delay</text></g><g id="Arrived"><rect fill="#F1F1F1" height="58.8652" rx="12.5" ry="12.5" style="stroke:#181818;stroke-width:0.5;" width="163.2256" x="851.14" y="576.8583"/><line style="stroke:#181818;stroke-width:0.5;" x1="851.14" x2="1014.3656" y1="599.8134" y2="599.8134"/><text fill="#000000" font-family="sans-serif" font-size="11" lengthAdjust="spacing" textLength="38.5161" x="913.4947" y="592.493">Arrived</text><text fill="#000000" font-family="sans-serif" font-size="11" lengthAdjust="spacing" textLength="143.2256" x="856.14" y="615.4481">actual travel time recorded</text><text fill="#000000" font-family="sans-serif" font-size="11" lengthAdjust="spacing" textLength="90.8735" x="856.14" y="628.4032">observer notified</text></g><g id="Aborted"><rect fill="#F1F1F1" height="58.8652" rx="12.5" ry="12.5" style="stroke:#181818;stroke-width:0.5;" width="209.0142" x="431.24" y="818.5583"/><line style="stroke:#181818;stroke-width:0.5;" x1="431.24" x2="640.2542" y1="841.5134" y2="841.5134"/><text fill="#000000" font-family="sans-serif" font-size="11" lengthAdjust="spacing" textLength="42.9365" x="514.2788" y="834.193">Aborted</text><text fill="#000000" font-family="sans-serif" font-size="11" lengthAdjust="spacing" textLength="128.8687" x="436.24" y="857.1481">partial results discarded</text><text fill="#000000" font-family="sans-serif" font-size="11" lengthAdjust="spacing" textLength="189.0142" x="436.24" y="870.1032">thrown from usleep / animCallback</text></g><ellipse cx="733.75" cy="982.3883" fill="none" rx="11" ry="11" style="stroke:#222222;stroke-width:1;"/><ellipse cx="733.75" cy="982.3883" fill="#222222" rx="6" ry="6" style="stroke:#222222;stroke-width:1;"/><g class="entity" data-entity="GMN2" data-source-line="46" data-uid="ent0003" id="entity_GMN2"><path d="M675.17,800.5883 L675.17,843.9883 L640.75,847.9883 L675.17,851.9883 L675.17,895.3852 A0,0 0 0 0 675.17,895.3852 L844.3184,895.3852 A0,0 0 0 0 844.3184,895.3852 L844.3184,810.5883 L834.3184,800.5883 L675.17,800.5883 A0,0 0 0 0 675.17,800.5883" fill="#FEFFDD" style="stroke:#181818;stroke-width:0.5;"/><path d="M834.3184,800.5883 L834.3184,810.5883 L844.3184,810.5883 L834.3184,800.5883" fill="#FEFFDD" style="stroke:#181818;stroke-width:0.5;"/><text fill="#000000" font-family="sans-serif" font-size="12" font-weight="bold" lengthAdjust="spacing" textLength="110.7305" x="681.17" y="817.1898">Bonus &#8212; GUI Stop</text><text fill="#000000" font-family="sans-serif" font-size="12" lengthAdjust="spacing" textLength="129.8145" x="681.17" y="831.3227">SimulationWorker sets</text><text fill="#000000" font-family="sans-serif" font-size="12" lengthAdjust="spacing" textLength="147.0352" x="681.17" y="845.4555">_stopRequested (atomic).</text><text fill="#000000" font-family="sans-serif" font-size="12" lengthAdjust="spacing" textLength="145.3066" x="681.17" y="859.5883">Simulation checks flag in</text><text fill="#000000" font-family="sans-serif" font-size="12" lengthAdjust="spacing" textLength="128.8711" x="681.17" y="873.7211">sleep loop and throws</text><text fill="#000000" font-family="sans-serif" font-size="12" lengthAdjust="spacing" textLength="148.1484" x="681.17" y="887.8539">SimulationStopException.</text></g><g class="entity" data-entity="GMN5" data-source-line="55" data-uid="ent0006" id="entity_GMN5"><path d="M172.71,322.7983 L172.71,403.4623 A0,0 0 0 0 172.71,403.4623 L322.7862,403.4623 A0,0 0 0 0 322.7862,403.4623 L322.7862,367.1283 L356.99,363.1283 L322.7862,359.1283 L322.7862,332.7983 L312.7862,322.7983 L172.71,322.7983 A0,0 0 0 0 172.71,322.7983" fill="#FEFFDD" style="stroke:#181818;stroke-width:0.5;"/><path d="M312.7862,322.7983 L312.7862,332.7983 L322.7862,332.7983 L312.7862,322.7983" fill="#FEFFDD" style="stroke:#181818;stroke-width:0.5;"/><text fill="#000000" font-family="sans-serif" font-size="12" font-weight="bold" lengthAdjust="spacing" textLength="120.8262" x="178.71" y="339.3998">Bonus &#8212; Multi-Run</text><text fill="#000000" font-family="sans-serif" font-size="12" lengthAdjust="spacing" textLength="128.3906" x="178.71" y="353.5327">Same lifecycle repeats</text><text fill="#000000" font-family="sans-serif" font-size="12" lengthAdjust="spacing" textLength="126.9316" x="178.71" y="367.6655">N times with different</text><text fill="#000000" font-family="sans-serif" font-size="12" lengthAdjust="spacing" textLength="121.5469" x="178.71" y="381.7983">RNG seeds. Statistics</text><text fill="#000000" font-family="sans-serif" font-size="12" lengthAdjust="spacing" textLength="129.0762" x="178.71" y="395.9311">aggregated afterward.</text></g><!--link *start* to Waiting--><g class="link" data-entity-1=".start." data-entity-2="Waiting" data-source-line="9" data-uid="lnk4" id="link_.start._Waiting"><path d="M450.75,63.6983 C450.75,81.5783 450.75,115.9483 450.75,147.2183" fill="none" id="*start*-to-Waiting" style="stroke:#181818;stroke-width:1;"/><polygon fill="#181818" points="450.75,153.2183,454.75,144.2183,450.75,148.2183,446.75,144.2183,450.75,153.2183" style="stroke:#181818;stroke-width:1;"/><text fill="#000000" font-family="sans-serif" font-size="12" lengthAdjust="spacing" textLength="76.9336" x="479.3096" y="106.0898">Train created</text><text fill="#000000" font-family="sans-serif" font-size="12" lengthAdjust="spacing" textLength="132.0527" x="451.75" y="120.2227">(from input file or GUI)</text></g><!--link Waiting to Running--><g class="link" data-entity-1="Waiting" data-entity-2="Running" data-source-line="11" data-uid="lnk6" id="link_Waiting_Running"><path d="M450.75,238.5783 C450.75,261.5283 450.75,284.1083 450.75,307.9983" fill="none" id="Waiting-to-Running" style="stroke:#181818;stroke-width:1;"/><polygon fill="#181818" points="450.75,313.9983,454.75,304.9983,450.75,308.9983,446.75,304.9983,450.75,313.9983" style="stroke:#181818;stroke-width:1;"/><text fill="#000000" font-family="sans-serif" font-size="12" lengthAdjust="spacing" textLength="162.2109" x="451.75" y="280.8698">simTime &gt;= departureTime</text></g><!--link Running to StoppedAtStation--><g class="link" data-entity-1="Running" data-entity-2="StoppedAtStation" data-source-line="17" data-uid="lnk8" id="link_Running_StoppedAtStation"><path d="M356.9,406.0283 C351.46,408.1283 346.05,410.1283 340.75,411.9983 C219.51,454.6383 139.77,385.8683 61.75,487.9983 C6,560.9683 122.2357,626.2268 208.9657,662.9868" fill="none" id="Running-to-StoppedAtStation" style="stroke:#181818;stroke-width:1;"/><polygon fill="#181818" points="214.49,665.3283,207.7645,658.1333,209.8864,663.3771,204.6426,665.499,214.49,665.3283" style="stroke:#181818;stroke-width:1;"/><text fill="#000000" font-family="sans-serif" font-size="12" lengthAdjust="spacing" textLength="156.416" x="62.75" y="522.0298">reached intermediate node</text></g><!--link StoppedAtStation to Running--><g class="link" data-entity-1="StoppedAtStation" data-entity-2="Running" data-source-line="26" data-uid="lnk15" id="link_StoppedAtStation_Running"><path d="M281.57,665.2983 C268.72,623.6283 251.58,545.3383 280.75,487.9983 C297.39,455.2883 322.1401,432.4547 352.1701,412.7947" fill="none" id="StoppedAtStation-to-Running" style="stroke:#181818;stroke-width:1;"/><polygon fill="#181818" points="357.19,409.5083,347.4692,411.0913,353.0067,412.247,351.8511,417.7845,357.19,409.5083" style="stroke:#181818;stroke-width:1;"/><text fill="#000000" font-family="sans-serif" font-size="12" lengthAdjust="spacing" textLength="119.1855" x="281.75" y="522.0298">stopTimer reaches 0</text></g><!--link Running to Delayed--><g class="link" data-entity-1="Running" data-entity-2="Delayed" data-source-line="18" data-uid="lnk10" id="link_Running_Delayed"><path d="M475.32,412.1083 C479.81,421.8583 484.19,432.1383 487.75,441.9983 C493.1,456.7983 496.1923,467.9239 499.4423,481.9139" fill="none" id="Running-to-Delayed" style="stroke:#181818;stroke-width:1;"/><polygon fill="#181818" points="500.8,487.7583,502.6597,478.0866,499.6686,482.888,494.8672,479.8969,500.8,487.7583" style="stroke:#181818;stroke-width:1;"/><text fill="#000000" font-family="sans-serif" font-size="12" lengthAdjust="spacing" textLength="128.625" x="493.98" y="454.5998">event triggers at node</text></g><!--link Delayed to Running--><g class="link" data-entity-1="Delayed" data-entity-2="Running" data-source-line="31" data-uid="lnk17" id="link_Delayed_Running"><path d="M418.69,497.6783 C398.3,489.0283 379.01,476.4083 366.75,457.9983 C356.2,442.1583 358.463,430.6687 371.413,416.5587" fill="none" id="Delayed-to-Running" style="stroke:#181818;stroke-width:1;"/><polygon fill="#181818" points="375.47,412.1383,366.4375,416.0643,372.0891,415.822,372.3314,421.4737,375.47,412.1383" style="stroke:#181818;stroke-width:1;"/><text fill="#000000" font-family="sans-serif" font-size="12" lengthAdjust="spacing" textLength="111.7324" x="367.75" y="454.5998">delay timer expires</text></g><!--link Running to Arrived--><g class="link" data-entity-1="Running" data-entity-2="Arrived" data-source-line="19" data-uid="lnk12" id="link_Running_Arrived"><path d="M544.54,381.1183 C599.35,393.3483 668.74,412.8983 725.75,441.9983 C796.49,478.0983 862.0979,536.1066 899.8279,572.4366" fill="none" id="Running-to-Arrived" style="stroke:#181818;stroke-width:1;"/><polygon fill="#181818" points="904.15,576.5983,900.4414,567.4744,900.5483,573.1302,894.8924,573.2371,904.15,576.5983" style="stroke:#181818;stroke-width:1;"/><text fill="#000000" font-family="sans-serif" font-size="12" lengthAdjust="spacing" textLength="144.2344" x="753.49" y="454.5998">reached final destination</text></g><!--link Running to Aborted--><g class="link" data-entity-1="Running" data-entity-2="Aborted" data-source-line="20" data-uid="lnk14" id="link_Running_Aborted"><path d="M544.41,385.7283 C576.07,397.4483 608.89,415.2283 630.75,441.9983 C695.02,520.6983 667.25,564.6683 677.75,665.7283 C680.45,691.7483 688.65,700.8083 677.75,724.5883 C659.24,764.9783 625.1272,793.8231 592.6172,815.0031" fill="none" id="Running-to-Aborted" style="stroke:#181818;stroke-width:1;"/><polygon fill="#181818" points="587.59,818.2783,597.3143,816.717,591.7794,815.5489,592.9474,810.014,587.59,818.2783" style="stroke:#181818;stroke-width:1;"/><text fill="#000000" font-family="sans-serif" font-size="12" lengthAdjust="spacing" textLength="144.3516" x="676.52" y="603.8998">SimulationStopException</text><text fill="#000000" font-family="sans-serif" font-size="12" lengthAdjust="spacing" textLength="119.4961" x="688.9477" y="618.0327">(GUI stop requested)</text></g><!--link StoppedAtStation to Aborted--><g class="link" data-entity-1="StoppedAtStation" data-entity-2="Aborted" data-source-line="27" data-uid="lnk16" id="link_StoppedAtStation_Aborted"><path d="M300.21,724.8483 C306.04,740.2283 315.22,758.4483 328.75,770.5883 C357.33,796.2483 389.5622,811.6686 425.1422,823.1986" fill="none" id="StoppedAtStation-to-Aborted" style="stroke:#181818;stroke-width:1;"/><polygon fill="#181818" points="430.85,825.0483,423.5214,818.4686,426.0935,823.5069,421.0552,826.079,430.85,825.0483" style="stroke:#181818;stroke-width:1;"/><text fill="#000000" font-family="sans-serif" font-size="12" lengthAdjust="spacing" textLength="144.3516" x="329.75" y="767.1898">SimulationStopException</text></g><!--link Delayed to StoppedAtStation--><g class="link" data-entity-1="Delayed" data-entity-2="StoppedAtStation" data-source-line="32" data-uid="lnk18" id="link_Delayed_StoppedAtStation"><path d="M418.63,541.3583 C373,553.9983 325.24,568.7283 317.75,576.8583 C295.7,600.7883 290.9636,633.109 290.5536,659.399" fill="none" id="Delayed-to-StoppedAtStation" style="stroke:#181818;stroke-width:1;"/><polygon fill="#181818" points="290.46,665.3983,294.5999,656.4617,290.538,660.3989,286.6008,656.337,290.46,665.3983" style="stroke:#181818;stroke-width:1;"/><text fill="#000000" font-family="sans-serif" font-size="12" lengthAdjust="spacing" textLength="155.877" x="318.75" y="610.8998">delay at intermediate node</text></g><!--link Delayed to Aborted--><g class="link" data-entity-1="Delayed" data-entity-2="Aborted" data-source-line="33" data-uid="lnk19" id="link_Delayed_Aborted"><path d="M509.3,547.2983 C514.8,609.6183 527.202,750.1716 532.692,812.3216" fill="none" id="Delayed-to-Aborted" style="stroke:#181818;stroke-width:1;"/><polygon fill="#181818" points="533.22,818.2983,536.4126,808.9812,532.78,813.3177,528.4436,809.6852,533.22,818.2983" style="stroke:#181818;stroke-width:1;"/><text fill="#000000" font-family="sans-serif" font-size="12" lengthAdjust="spacing" textLength="144.3516" x="525.6" y="699.7598">SimulationStopException</text></g><!--link Arrived to *end*--><g class="link" data-entity-1="Arrived" data-entity-2=".end." data-source-line="37" data-uid="lnk21" id="link_Arrived_.end."><path d="M930.3,635.8983 C924.73,689.5783 907.84,807.8783 861.75,895.3883 C848.99,919.6183 842.77,925.0983 820.75,941.3883 C796.02,959.6783 767.298,970.5388 750.108,976.2088" fill="none" id="Arrived-to-*end*" style="stroke:#181818;stroke-width:1;"/><polygon fill="#181818" points="744.41,978.0883,754.21,979.0678,749.1584,976.5221,751.7041,971.4704,744.41,978.0883" style="stroke:#181818;stroke-width:1;"/><text fill="#000000" font-family="sans-serif" font-size="12" lengthAdjust="spacing" textLength="111.791" x="911.24" y="767.1898">.result file finalised</text></g><!--link Aborted to *end*--><g class="link" data-entity-1="Aborted" data-entity-2=".end." data-source-line="41" data-uid="lnk22" id="link_Aborted_.end."><path d="M578.71,877.7183 C626.25,909.5083 694.5116,955.1542 719.8116,972.0642" fill="none" id="Aborted-to-*end*" style="stroke:#181818;stroke-width:1;"/><polygon fill="#181818" points="724.8,975.3983,719.5402,967.0715,720.643,972.6199,715.0947,973.7227,724.8,975.3983" style="stroke:#181818;stroke-width:1;"/><text fill="#000000" font-family="sans-serif" font-size="12" lengthAdjust="spacing" textLength="141.7793" x="670.7" y="937.9898">GUI stop button pressed</text></g><!--SRC=[XLN1Rjms4BtpA-PeR-njtDuCE83JD461E0SxGGvj4N2faNQm5AcGr3hRKq_vW21Vc2_f8xNQbMm3EHXhQTvmthnv7CMDk4u7tLB5jUvjUkrTkfD_cIv-LV4GZ6jT-Njn3TNQHfv4xf9EV4pwxM7eEgKWgtwAkL0gIR9CxuCMHs-bPhCpUFxnt_SXYMwqMOjZEhdHhjB9XnqzevVUzV5KgRyM_z3v-Glwg2LbIfVxWqnWv5P_kvCw-9P0eqzK2mxsWTvy-1EfOqfEl-sT6zAZjE-bPNfn1HN0FVM1ymjrhE1qosTqpzAiqndLGKmIxoO0RGpRrpuOm5P1RxZyFm4SJgOVNx-H3a6ssaxYCVdkLHzqELUDv3BHEqGwhgvJrWPHWD6fMNE57XE7bYl9eZbVyIpn5Lkz0-gIUCik4IRHD1mYwVGOV9qP5V1uU2rEM_2EO3ZGck5NFgI2lvEsjmMGcVxnnN2N7p07Y5xwmf6VUvp3rQawojwjTr5C9Ek1EBc8bCHiuXHHHEMGc_jbK1M_BMQTy3V1nOx1nEWi4wrs5BbfSyDMMadJyvoqWuH6MxlIPWC5jtvJJ2Cr-XeG4ySy4l-1TH3ELWbxrI8zVphbftAf9yOyz7L5py-eyr7AswkdAbn2kqp2-DwbIBYhZiebcBjgDCIyXog_tH_0Npe976V89weDAR3HOmDECt_UzD6YoITjooCzkneCkwn6vaUOiHvJqzLMEmErCUp2HQdHlxbktX2Nj4GZs6Z32YXcbiYLEXfTczJ3uIdeBTiY0APeVAXcAB-A7BRGnlaajI2cnhwEjGvEnwfBaAX3xLBie42-_O9g0odCIABHGwa39gt3ON9zjCmT_9uj-VlUhag115ZcDKI-7WLMH8j5MOzbXsOoMUR50e6ZyXzzsA2Do2dY_QTCztQybtI2BTkAELtEKWYMnfsaske6iqPiO5MkB5Rpm3ZEScO3NYe6AfFUKxTS5-Px-prWVWDfv1onWJgMBkxm-7a8t671vsBloh0YtKjQGyYwvW2x873xxWtwuoekouT4iBfCJj1D4xZ9NmVIDHnx3-KdrFu7]--></g></svg>